<svg width="60" height="60" viewBox="0 0 60 60" fill="none" xmlns="http://www.w3.org/2000/svg">
<rect width="60" height="60" fill="black"/>
<path d="M51.5625 6.5625H8.4375C7.40039 6.5625 6.5625 7.40039 6.5625 8.4375V51.5625C6.5625 52.5996 7.40039 53.4375 8.4375 53.4375H51.5625C52.5996 53.4375 53.4375 52.5996 53.4375 51.5625V8.4375C53.4375 7.40039 52.5996 6.5625 51.5625 6.5625ZM23.6719 40.0195V44.5312C23.6719 44.7891 23.4609 45 23.2031 45H20.3906C20.1328 45 19.9219 44.7891 19.9219 44.5312V40.0195C17.4785 39.2227 15.7031 36.9258 15.7031 34.2188C15.7031 31.5117 17.4785 29.209 19.9219 28.418V15.4688C19.9219 15.2109 20.1328 15 20.3906 15H23.2031C23.4609 15 23.6719 15.2109 23.6719 15.4688V28.418C26.1152 29.2148 27.8906 31.5117 27.8906 34.2188C27.8906 36.9258 26.1152 39.2285 23.6719 40.0195ZM40.0547 31.5879C40.0664 31.5879 40.0723 31.582 40.0781 31.582V44.5312C40.0781 44.7891 39.8672 45 39.6094 45H36.7969C36.5391 45 36.3281 44.7891 36.3281 44.5312V31.582C36.3398 31.582 36.3457 31.5879 36.3516 31.5879C33.8906 30.8027 32.1094 28.5 32.1094 25.7812C32.1094 23.0625 33.8906 20.7598 36.3516 19.9746C36.3398 19.9746 36.334 19.9805 36.3281 19.9805V15.4688C36.3281 15.2109 36.5391 15 36.7969 15H39.6094C39.8672 15 40.0781 15.2109 40.0781 15.4688V19.9805C40.0664 19.9805 40.0605 19.9746 40.0547 19.9746C42.5156 20.7598 44.2969 23.0625 44.2969 25.7812C44.2969 28.5 42.5156 30.8027 40.0547 31.5879ZM36.0938 25.7812C36.0938 26.3407 36.316 26.8772 36.7116 27.2728C37.1072 27.6684 37.6437 27.8906 38.2031 27.8906C38.7626 27.8906 39.2991 27.6684 39.6947 27.2728C40.0903 26.8772 40.3125 26.3407 40.3125 25.7812C40.3125 25.2218 40.0903 24.6853 39.6947 24.2897C39.2991 23.8941 38.7626 23.6719 38.2031 23.6719C37.6437 23.6719 37.1072 23.8941 36.7116 24.2897C36.316 24.6853 36.0938 25.2218 36.0938 25.7812ZM23.6367 33.1934L23.5488 33.0527C23.5488 33.0469 23.543 33.0469 23.543 33.041L23.4902 32.9707C23.4844 32.9648 23.4785 32.959 23.4785 32.9531C23.4199 32.877 23.3613 32.8066 23.291 32.7422L23.2793 32.7305C23.2559 32.707 23.2324 32.6836 23.209 32.666C23.1621 32.6191 23.1094 32.5781 23.0566 32.543H23.0508L22.9805 32.4902C22.9746 32.4844 22.9629 32.4785 22.957 32.4727C22.8867 32.4258 22.8105 32.3789 22.7285 32.3438C22.7168 32.3379 22.6992 32.332 22.6875 32.3203C22.6641 32.3086 22.6465 32.3027 22.623 32.291C22.6055 32.2852 22.582 32.2734 22.5645 32.2676C22.5352 32.2559 22.5059 32.2441 22.4766 32.2383C22.4531 32.2324 22.4238 32.2207 22.4004 32.2148L22.3477 32.1973L22.2656 32.1797C22.2539 32.1738 22.2363 32.1738 22.2246 32.168C22.1836 32.1621 22.1426 32.1504 22.1016 32.1445C22.0898 32.1445 22.0781 32.1445 22.0664 32.1387C22.0312 32.1328 22.002 32.1328 21.9668 32.127C21.9551 32.127 21.9434 32.127 21.9258 32.1211C21.8789 32.1211 21.8379 32.1152 21.791 32.1152C21.7441 32.1152 21.7031 32.1152 21.6562 32.1211C21.6445 32.1211 21.6328 32.1211 21.6152 32.127C21.5801 32.127 21.5449 32.1328 21.5156 32.1387C21.5039 32.1387 21.4922 32.1387 21.4805 32.1445C21.4395 32.1504 21.3984 32.1562 21.3574 32.168C21.3457 32.1738 21.3281 32.1738 21.3164 32.1797L21.2344 32.1973L21.1816 32.2148C21.1582 32.2207 21.1289 32.2324 21.1055 32.2383C21.0762 32.25 21.0469 32.2617 21.0176 32.2676C21 32.2734 20.9766 32.2852 20.959 32.291C20.9355 32.3027 20.918 32.3086 20.8945 32.3203C20.8828 32.3262 20.8652 32.332 20.8535 32.3438C20.7773 32.3848 20.7012 32.4258 20.625 32.4727C20.6191 32.4785 20.6074 32.4844 20.6016 32.4902L20.5312 32.543H20.5254C20.4727 32.584 20.4199 32.625 20.373 32.666C20.3496 32.6895 20.3262 32.707 20.3027 32.7305L20.291 32.7422C20.2255 32.8097 20.1629 32.8801 20.1035 32.9531C20.0977 32.959 20.0918 32.9648 20.0918 32.9707L20.0391 33.041C20.0391 33.0469 20.0332 33.0469 20.0332 33.0527L19.9453 33.1934C19.9395 33.2051 19.9336 33.2109 19.9277 33.2227C19.7695 33.5215 19.6758 33.8613 19.6758 34.2188C19.6758 34.5762 19.7695 34.9219 19.9277 35.2148C19.9336 35.2266 19.9395 35.2324 19.9453 35.2441L20.0332 35.3848C20.0332 35.3906 20.0391 35.3906 20.0391 35.3965L20.0918 35.4668C20.0977 35.4727 20.1035 35.4785 20.1035 35.4844C20.1621 35.5605 20.2207 35.6309 20.291 35.6953L20.3027 35.707C20.3262 35.7305 20.3496 35.7539 20.373 35.7715C20.4199 35.8184 20.4727 35.8594 20.5254 35.8945H20.5312L20.6016 35.9473C20.6074 35.9531 20.6191 35.959 20.625 35.9648C20.6953 36.0117 20.7715 36.0586 20.8535 36.0938C20.8652 36.0996 20.8828 36.1055 20.8945 36.1172C20.918 36.1289 20.9355 36.1348 20.959 36.1465C20.9766 36.1523 21 36.1641 21.0176 36.1699C21.0469 36.1816 21.0762 36.1934 21.1055 36.1992C21.1289 36.2051 21.1582 36.2168 21.1816 36.2227L21.2344 36.2402L21.3164 36.2578C21.3281 36.2637 21.3457 36.2637 21.3574 36.2695C21.3984 36.2754 21.4395 36.2871 21.4805 36.293C21.4922 36.293 21.5039 36.293 21.5156 36.2988C21.5508 36.3047 21.5801 36.3047 21.6152 36.3105C21.627 36.3105 21.6387 36.3105 21.6562 36.3164C21.7031 36.3164 21.7441 36.3223 21.791 36.3223C21.8379 36.3223 21.8789 36.3223 21.9258 36.3164C21.9375 36.3164 21.9492 36.3164 21.9668 36.3105C22.002 36.3105 22.0371 36.3047 22.0664 36.2988C22.0781 36.2988 22.0898 36.2988 22.1016 36.293C22.1426 36.2871 22.1836 36.2812 22.2246 36.2695C22.2363 36.2637 22.2539 36.2637 22.2656 36.2578L22.3477 36.2402L22.4004 36.2227C22.4238 36.2168 22.4531 36.2051 22.4766 36.1992C22.5059 36.1875 22.5352 36.1758 22.5645 36.1699C22.582 36.1641 22.6055 36.1523 22.623 36.1465C22.6465 36.1348 22.6641 36.1289 22.6875 36.1172C22.6992 36.1113 22.7168 36.1055 22.7285 36.0938C22.8047 36.0527 22.8809 36.0117 22.957 35.9648C22.9629 35.959 22.9746 35.9531 22.9805 35.9473L23.0508 35.8945H23.0566C23.1094 35.8535 23.1621 35.8125 23.209 35.7715C23.2324 35.748 23.2559 35.7305 23.2793 35.707L23.291 35.6953C23.3555 35.6309 23.4199 35.5547 23.4785 35.4844C23.4844 35.4785 23.4902 35.4727 23.4902 35.4668L23.543 35.3965C23.543 35.3906 23.5488 35.3906 23.5488 35.3848L23.6367 35.2441C23.6426 35.2324 23.6484 35.2266 23.6543 35.2148C23.8125 34.916 23.9062 34.5762 23.9062 34.2188C23.9062 33.8613 23.8125 33.5156 23.6543 33.2227C23.6484 33.2109 23.6426 33.1992 23.6367 33.1934Z" fill="white"/>
</svg>
