<svg width="60" height="60" viewBox="0 0 60 60" fill="none" xmlns="http://www.w3.org/2000/svg">
<rect width="60" height="60" fill="black"/>
<path d="M25.2628 35.7628C24.5786 36.447 24.5786 37.553 25.2628 38.2372C25.6041 38.5785 26.052 38.75 26.5001 38.75C26.9481 38.75 27.3961 38.5785 27.7374 38.2372L34.7356 31.239C34.8984 31.0763 35.0261 30.8837 35.1154 30.6685C35.2921 30.2415 35.2921 29.7585 35.1154 29.3315C35.0261 29.1162 34.8984 28.9237 34.7356 28.7609L27.7374 21.7627C27.0531 21.0785 25.9471 21.0785 25.2629 21.7627C24.5787 22.4469 24.5787 23.5529 25.2629 24.2371L29.2756 28.2499H10.75C9.78225 28.25 9 29.034 9 30C9 30.966 9.78225 31.75 10.75 31.75H29.2755L25.2628 35.7628Z" fill="white"/>
<path d="M49.2501 9H17.7501C16.7823 9 16 9.78397 16 10.75V24.75H21.5685C21.3708 24.1935 21.25 23.6072 21.25 23C21.25 21.5983 21.796 20.2788 22.7883 19.2883C23.7788 18.296 25.0983 17.75 26.5 17.75C27.9018 17.75 29.2212 18.296 30.2118 19.2883L37.2118 26.2882C37.427 26.5035 37.6108 26.7397 37.7823 26.983C37.805 27.0127 37.8331 27.0372 37.8523 27.067C38.015 27.3067 38.1427 27.5622 38.2618 27.8212C38.2845 27.8702 38.3178 27.914 38.3388 27.963C38.4438 28.2133 38.5156 28.4775 38.5803 28.7417C38.5978 28.8135 38.6293 28.8782 38.6433 28.9517C38.7133 29.293 38.75 29.643 38.75 30C38.75 30.357 38.7133 30.707 38.6433 31.0483C38.6293 31.1218 38.5978 31.1865 38.5803 31.2583C38.5156 31.5225 38.4438 31.7868 38.3388 32.037C38.3178 32.0842 38.2863 32.1262 38.2653 32.1718C38.1463 32.4343 38.015 32.6915 37.8523 32.933C37.833 32.9628 37.805 32.9872 37.7823 33.017C37.6108 33.2602 37.427 33.4965 37.2118 33.7117L30.2118 40.7117C29.2212 41.7039 27.9018 42.2499 26.5 42.2499C25.0983 42.2499 23.7788 41.7039 22.7883 40.7117C21.796 39.7212 21.25 38.4017 21.25 37C21.25 36.3927 21.3708 35.8065 21.5685 35.25H16V37V49.2499C16 50.2159 16.7823 50.9999 17.75 50.9999H49.25C50.2178 50.9999 51 50.2159 51 49.2499V10.75C51.0001 9.78397 50.2178 9 49.2501 9Z" fill="#FCF7F7"/>
</svg>
