<svg width="60" height="60" viewBox="0 0 60 60" fill="none" xmlns="http://www.w3.org/2000/svg">
<rect width="60" height="60" fill="black"/>
<path fill-rule="evenodd" clip-rule="evenodd" d="M17.151 38.0485C13.8502 35.1039 11.4927 31.7383 10.3867 30C11.4927 28.2617 13.8502 24.8961 17.151 21.9516C20.5588 18.9117 24.7665 16.5 29.4999 16.5C34.2334 16.5 38.4414 18.9117 41.849 21.9516C45.1499 24.8961 47.5074 28.2617 48.6135 30C47.5074 31.7383 45.1499 35.1039 41.849 38.0485C38.4414 41.0884 34.2334 43.5 29.4999 43.5C24.7665 43.5 20.5588 41.0884 17.151 38.0485ZM29.4999 12C23.3185 12 18.1385 15.1379 14.3266 18.5384C10.5008 21.9512 7.8459 25.8096 6.66768 27.682C5.77744 29.0966 5.77744 30.9034 6.66768 32.3179C7.8459 34.1904 10.5008 38.0487 14.3266 41.4617C18.1385 44.8622 23.3185 48 29.4999 48C35.6814 48 40.8615 44.8622 44.6736 41.4617C48.4993 38.0487 51.1541 34.1904 52.3323 32.3179C53.2226 30.9034 53.2226 29.0966 52.3323 27.682C51.1541 25.8096 48.4993 21.9512 44.6736 18.5384C40.8615 15.1379 35.6814 12 29.4999 12ZM25.1658 30C25.1658 27.5147 27.1064 25.5 29.4999 25.5C31.8936 25.5 33.834 27.5147 33.834 30C33.834 32.4853 31.8936 34.5 29.4999 34.5C27.1064 34.5 25.1658 32.4853 25.1658 30ZM29.4999 21C24.7127 21 20.8318 25.0294 20.8318 30C20.8318 34.9705 24.7127 39 29.4999 39C34.2874 39 38.1681 34.9705 38.1681 30C38.1681 25.0294 34.2874 21 29.4999 21Z" fill="white"/>
</svg>
