<svg width="60" height="60" viewBox="0 0 60 60" fill="none" xmlns="http://www.w3.org/2000/svg">
<g clip-path="url(#clip0_102_641)">
<rect width="60" height="60" fill="black"/>
<path fill-rule="evenodd" clip-rule="evenodd" d="M8.54327 21.221C8.26688 21.3945 8.06562 21.678 8.04152 22.0091C7.84025 24.6624 8.37601 27.1196 9.53401 29.3726C10.7544 31.7504 12.6706 33.9048 15.1454 35.8279L15.1581 35.8392C17.3224 37.8292 37.5511 42.9 41.7338 43.9998C45.1043 44.8378 48.4762 45.6769 51.5093 46.4434C51.5547 46.4593 51.6043 46.4706 51.6553 46.4751C52.004 46.5057 52.3343 46.2472 52.3087 45.881L52.3102 35.0704C52.3824 34.7223 52.1117 34.4014 51.6964 34.3549L30.7563 32.1745C28.8003 33.7336 26.2434 34.33 23.4497 34.9808L23.2499 35.0285C23.0585 35.0863 22.8402 35.0194 22.7495 34.8697C22.6532 34.711 22.7354 34.5205 22.9324 34.4434L23.1648 34.3527C25.3447 33.5022 27.3617 32.7142 28.8556 31.4023C29.0157 30.5122 29.0568 29.5098 28.9534 28.3872C28.874 27.5278 28.7436 26.6977 28.5806 25.8677C28.4148 25.0343 28.2149 24.1975 27.9966 23.3335C27.9484 23.1521 27.9045 22.9627 27.8464 22.7835C27.6168 21.9172 27.3943 21.0045 27.1661 20.0724C26.473 17.2354 25.7317 14.2022 24.6304 11.8143C24.3441 11.1906 23.9387 10.8833 23.5433 10.7972C23.376 10.7597 23.2088 10.7643 23.0543 10.8006C22.8984 10.838 22.7524 10.9094 22.6319 11.0058C22.3498 11.2303 22.1954 11.592 22.3045 11.9968C23.0812 14.8905 23.6425 17.6844 24.259 20.6167L24.2619 20.6484C24.2675 20.6881 24.2916 20.9444 23.9231 21.0237C23.6439 21.0827 23.4299 20.7607 23.2655 20.2708C23.033 19.578 22.8232 18.4918 22.7056 17.8806C22.6673 17.6878 22.6404 17.545 22.6206 17.4667C22.2648 16.0323 21.9005 14.6331 21.5391 13.2362C21.2415 12.0932 20.9452 10.9525 20.6419 9.7449C20.4506 8.98746 19.8496 8.46586 19.2175 8.2731C18.9935 8.20393 18.7667 8.17785 18.557 8.1994C18.3585 8.21981 18.1714 8.28217 18.0155 8.39216L18.007 8.4001C17.6272 8.67563 17.4188 9.23237 17.5946 10.135C17.8001 11.1895 17.9971 12.1737 18.2012 13.159C18.4039 14.1353 18.6094 15.0923 18.8348 16.0958C18.8716 16.2625 18.9822 16.6242 19.1239 17.0869C19.2501 17.4985 19.4003 17.9894 19.5406 18.4815C19.9984 20.0792 20.3854 21.8356 19.7745 21.9479C19.4726 22.0023 19.277 21.7721 19.277 21.7721C19.2501 21.7494 19.2302 21.7211 19.2231 21.6882C18.985 20.6473 18.7228 19.5973 18.445 18.5371C18.1615 17.4576 17.8724 16.3997 17.5776 15.3373L17.3026 14.3428C16.8561 12.727 16.4337 11.1951 15.8937 9.43534C15.6556 8.65635 15.1014 8.19599 14.5274 8.04973C14.3091 7.9953 14.088 7.98509 13.8811 8.02138C13.677 8.05652 13.4842 8.13703 13.324 8.26063C12.9073 8.58152 12.6848 9.19723 12.9187 10.1089C13.2758 11.5002 13.6004 12.8529 13.925 14.2102C14.2099 15.4019 14.4962 16.597 14.7896 17.7581C14.9569 18.4203 15.1468 19.1335 15.3367 19.8479C15.5394 20.6099 15.7421 21.373 15.9278 22.1168L15.9334 22.1508C15.9362 22.1814 15.9391 22.2438 15.9136 22.3084C15.8781 22.4003 15.7959 22.4933 15.6173 22.5205L15.6088 22.5216C14.8732 22.6248 14.071 19.1381 13.8286 18.0881L13.7705 17.8375C13.5182 16.8408 13.1936 15.8362 12.8747 14.8486C12.5657 13.8881 12.2596 12.9436 12.0286 12.0229C11.8004 11.1192 11.3213 10.6169 10.8167 10.4536C10.6225 10.3901 10.4241 10.3799 10.237 10.4162L10.2328 10.4173C10.0414 10.4547 9.85859 10.5432 9.70125 10.6781C9.2477 11.0659 9.00249 11.8211 9.29447 12.8654C9.57511 13.8666 9.70976 14.6195 9.84725 15.3917C9.9663 16.0527 10.0882 16.7286 10.2994 17.5688C10.5276 18.4747 10.8592 19.6064 11.1895 20.7391C11.3837 21.4047 11.5793 22.0703 11.7678 22.7495L11.7734 22.7688C11.979 23.7519 12.1916 24.6624 12.4226 25.5366C12.6551 26.4097 12.9045 27.2397 13.1866 28.0618C13.2064 28.1106 13.1979 28.1661 13.1554 28.2092C13.0888 28.2795 12.9626 28.292 12.8762 28.2387C12.1717 27.8033 11.9931 27.1842 11.6459 25.9777C11.4389 25.2566 11.1682 24.3166 10.6849 23.0704L10.2498 21.9513C10.0712 21.4932 9.8033 21.229 9.51416 21.1133C9.354 21.0487 9.18249 21.0317 9.01808 21.051C8.84942 21.0702 8.68641 21.1303 8.54327 21.221ZM30.555 19.3898L36.1153 15.5357C36.6142 15.191 37.3711 15.2341 37.802 15.6332C37.9976 15.8135 38.0925 16.0369 38.0925 16.2591L38.0982 18.1573L51.3605 18.5915C51.8963 18.6085 52.3343 19.0099 52.2804 19.502L52.279 24.7815C52.3059 25.3121 51.7801 25.7623 51.121 25.7906L38.0982 23.609V25.2815C38.0982 25.811 37.5596 26.2419 36.8977 26.2419C36.5292 26.2419 36.2018 26.1092 35.9807 25.8995L30.3693 20.7947C29.9328 20.3978 29.981 19.7901 30.477 19.4408L30.555 19.3898Z" fill="#FCF7F7"/>
<path d="M3.5245 50.6368H2.7468C2.7326 50.5362 2.7036 50.4469 2.6598 50.3687C2.616 50.2894 2.55978 50.2219 2.49112 50.1663C2.42247 50.1107 2.34316 50.0681 2.2532 50.0385C2.16442 50.0089 2.06795 49.9941 1.96378 49.9941C1.77557 49.9941 1.61162 50.0408 1.47195 50.1344C1.33227 50.2267 1.22396 50.3616 1.14702 50.5392C1.07008 50.7156 1.03161 50.9298 1.03161 51.1819C1.03161 51.4412 1.07008 51.659 1.14702 51.8353C1.22514 52.0117 1.33404 52.1449 1.47372 52.2349C1.6134 52.3248 1.77498 52.3698 1.95845 52.3698C2.06143 52.3698 2.15672 52.3562 2.24432 52.329C2.3331 52.3017 2.41181 52.2621 2.48047 52.21C2.54912 52.1567 2.60594 52.0922 2.65092 52.0165C2.69709 51.9407 2.72905 51.8543 2.7468 51.7572L3.5245 51.7608C3.50438 51.9277 3.45407 52.0887 3.37358 52.2437C3.29427 52.3976 3.18714 52.5355 3.0522 52.6574C2.91844 52.7782 2.75864 52.8741 2.5728 52.9451C2.38814 53.0149 2.17921 53.0498 1.94602 53.0498C1.62169 53.0498 1.33168 52.9764 1.07599 52.8297C0.821496 52.6829 0.620265 52.4704 0.472301 52.1922C0.325521 51.9141 0.252131 51.5773 0.252131 51.1819C0.252131 50.7854 0.326705 50.448 0.475852 50.1699C0.625 49.8917 0.827415 49.6798 1.0831 49.5342C1.33878 49.3874 1.62642 49.314 1.94602 49.314C2.15672 49.314 2.35204 49.3436 2.53196 49.4028C2.71307 49.462 2.87346 49.5484 3.01314 49.6621C3.15282 49.7745 3.26645 49.9124 3.35405 50.0758C3.44283 50.2391 3.49964 50.4261 3.5245 50.6368ZM0.301847 59.0001V56.2728H1.03516V56.7487H1.06357C1.11328 56.5794 1.19673 56.4516 1.31392 56.3652C1.43111 56.2776 1.56605 56.2338 1.71875 56.2338C1.75663 56.2338 1.79747 56.2362 1.84126 56.2409C1.88506 56.2456 1.92353 56.2521 1.95668 56.2604V56.9316C1.92116 56.9209 1.87204 56.9115 1.8093 56.9032C1.74657 56.8949 1.68916 56.8907 1.63707 56.8907C1.5258 56.8907 1.42637 56.915 1.33878 56.9635C1.25237 57.0109 1.18371 57.0772 1.13281 57.1624C1.0831 57.2476 1.05824 57.3459 1.05824 57.4572V59.0001H0.301847ZM1.54474 65.0534C1.2642 65.0534 1.02273 64.9966 0.820312 64.8829C0.619081 64.7681 0.464015 64.6059 0.355114 64.3964C0.246212 64.1857 0.191761 63.9366 0.191761 63.6489C0.191761 63.3684 0.246212 63.1222 0.355114 62.9103C0.464015 62.6984 0.617306 62.5333 0.814986 62.4149C1.01385 62.2965 1.24704 62.2373 1.51456 62.2373C1.69448 62.2373 1.86198 62.2663 2.01705 62.3243C2.1733 62.3812 2.30942 62.467 2.42543 62.5818C2.54261 62.6966 2.63376 62.841 2.69886 63.015C2.76397 63.1879 2.79652 63.3903 2.79652 63.6223V63.83H0.493608V63.3613H2.08452C2.08452 63.2524 2.06084 63.1559 2.01349 63.0719C1.96615 62.9878 1.90045 62.9221 1.81641 62.8748C1.73355 62.8262 1.63707 62.802 1.52699 62.802C1.41217 62.802 1.31037 62.8286 1.22159 62.8819C1.134 62.934 1.06534 63.0044 1.01562 63.0932C0.965909 63.1808 0.940459 63.2784 0.939276 63.3861V63.8318C0.939276 63.9667 0.964134 64.0833 1.01385 64.1816C1.06475 64.2798 1.13636 64.3556 1.22869 64.4089C1.32102 64.4621 1.43052 64.4888 1.55717 64.4888C1.64122 64.4888 1.71816 64.4769 1.788 64.4532C1.85784 64.4296 1.91761 64.3941 1.96733 64.3467C2.01705 64.2994 2.05492 64.2414 2.08097 64.1727L2.78054 64.2189C2.74503 64.387 2.67223 64.5337 2.56214 64.6592C2.45324 64.7835 2.31238 64.8806 2.13956 64.9504C1.96792 65.0191 1.76965 65.0534 1.54474 65.0534ZM1.07955 71.0516C0.90554 71.0516 0.750474 71.0214 0.614347 70.9611C0.47822 70.8995 0.370502 70.809 0.291193 70.6894C0.213068 70.5687 0.174006 70.4183 0.174006 70.2384C0.174006 70.0869 0.201823 69.9596 0.257457 69.8567C0.313092 69.7537 0.388849 69.6708 0.48473 69.6081C0.580611 69.5453 0.689512 69.498 0.811435 69.466C0.934541 69.4341 1.06357 69.4116 1.19851 69.3986C1.35713 69.382 1.48497 69.3666 1.58203 69.3524C1.6791 69.337 1.74953 69.3145 1.79332 69.2849C1.83712 69.2553 1.85902 69.2115 1.85902 69.1535V69.1429C1.85902 69.0304 1.82351 68.9434 1.75249 68.8819C1.68265 68.8203 1.58321 68.7895 1.45419 68.7895C1.31806 68.7895 1.20975 68.8197 1.12926 68.8801C1.04877 68.9393 0.995502 69.0139 0.96946 69.1038L0.269886 69.047C0.305398 68.8813 0.375237 68.738 0.479403 68.6173C0.58357 68.4954 0.717921 68.4019 0.882457 68.3368C1.04818 68.2705 1.23994 68.2373 1.45774 68.2373C1.60926 68.2373 1.75426 68.2551 1.89276 68.2906C2.03243 68.3261 2.15613 68.3812 2.26385 68.4557C2.37275 68.5303 2.45857 68.6262 2.52131 68.7434C2.58404 68.8594 2.61541 68.9985 2.61541 69.1606V71.0001H1.89808V70.6219H1.87678C1.83298 70.7072 1.77438 70.7823 1.70099 70.8474C1.6276 70.9113 1.53942 70.9617 1.43643 70.9983C1.33345 71.0339 1.21449 71.0516 1.07955 71.0516ZM1.29616 70.5296C1.40743 70.5296 1.50568 70.5077 1.59091 70.4639C1.67614 70.4189 1.74302 70.3586 1.79155 70.2828C1.84008 70.207 1.86435 70.1212 1.86435 70.0253V69.7359C1.84067 69.7513 1.80812 69.7655 1.76669 69.7785C1.72644 69.7904 1.68087 69.8016 1.62997 69.8123C1.57907 69.8217 1.52817 69.8306 1.47727 69.8389C1.42637 69.846 1.38021 69.8525 1.33878 69.8584C1.25 69.8715 1.17247 69.8922 1.10618 69.9206C1.03989 69.949 0.9884 69.9875 0.951705 70.036C0.91501 70.0833 0.896662 70.1425 0.896662 70.2135C0.896662 70.3165 0.933949 70.3952 1.00852 70.4497C1.08428 70.503 1.18016 70.5296 1.29616 70.5296ZM1.75249 74.2728V74.841H0.110085V74.2728H1.75249ZM0.482955 73.6194H1.23935V76.1621C1.23935 76.2319 1.25 76.2863 1.27131 76.3254C1.29261 76.3633 1.32221 76.3899 1.36009 76.4053C1.39915 76.4207 1.44413 76.4284 1.49503 76.4284C1.53054 76.4284 1.56605 76.4254 1.60156 76.4195C1.63707 76.4124 1.6643 76.4071 1.68324 76.4035L1.8022 76.9664C1.76432 76.9782 1.71106 76.9918 1.6424 77.0072C1.57375 77.0238 1.49029 77.0339 1.39205 77.0374C1.20975 77.0445 1.04995 77.0202 0.912642 76.9646C0.776515 76.909 0.670573 76.8226 0.594815 76.7054C0.519058 76.5882 0.481771 76.4402 0.482955 76.2615V73.6194ZM1.54474 83.0534C1.2642 83.0534 1.02273 82.9966 0.820312 82.8829C0.619081 82.7681 0.464015 82.6059 0.355114 82.3964C0.246212 82.1857 0.191761 81.9366 0.191761 81.6489C0.191761 81.3684 0.246212 81.1222 0.355114 80.9103C0.464015 80.6984 0.617306 80.5333 0.814986 80.4149C1.01385 80.2965 1.24704 80.2373 1.51456 80.2373C1.69448 80.2373 1.86198 80.2663 2.01705 80.3243C2.1733 80.3812 2.30942 80.467 2.42543 80.5818C2.54261 80.6966 2.63376 80.841 2.69886 81.015C2.76397 81.1879 2.79652 81.3903 2.79652 81.6223V81.83H0.493608V81.3613H2.08452C2.08452 81.2524 2.06084 81.1559 2.01349 81.0719C1.96615 80.9878 1.90045 80.9221 1.81641 80.8748C1.73355 80.8262 1.63707 80.802 1.52699 80.802C1.41217 80.802 1.31037 80.8286 1.22159 80.8819C1.134 80.934 1.06534 81.0044 1.01562 81.0932C0.965909 81.1808 0.940459 81.2784 0.939276 81.3861V81.8318C0.939276 81.9667 0.964134 82.0833 1.01385 82.1816C1.06475 82.2798 1.13636 82.3556 1.22869 82.4089C1.32102 82.4621 1.43052 82.4888 1.55717 82.4888C1.64122 82.4888 1.71816 82.4769 1.788 82.4532C1.85784 82.4296 1.91761 82.3941 1.96733 82.3467C2.01705 82.2994 2.05492 82.2414 2.08097 82.1727L2.78054 82.2189C2.74503 82.387 2.67223 82.5337 2.56214 82.6592C2.45324 82.7835 2.31238 82.8806 2.13956 82.9504C1.96792 83.0191 1.76965 83.0534 1.54474 83.0534ZM1.30682 89.0445C1.09967 89.0445 0.91205 88.9912 0.743963 88.8847C0.57706 88.777 0.444484 88.619 0.346236 88.4106C0.249171 88.2011 0.200639 87.9443 0.200639 87.64C0.200639 87.3275 0.250947 87.0677 0.351562 86.8606C0.452178 86.6522 0.585938 86.4966 0.752841 86.3936C0.920928 86.2894 1.105 86.2373 1.30504 86.2373C1.45774 86.2373 1.58499 86.2634 1.68679 86.3155C1.78977 86.3664 1.87263 86.4303 1.93537 86.5072C1.99929 86.583 2.04782 86.6576 2.08097 86.7309H2.10405V85.3638H2.85866V89.0001H2.11293V88.5633H2.08097C2.04545 88.6391 1.99515 88.7143 1.93004 88.7888C1.86612 88.8622 1.78267 88.9232 1.67969 88.9717C1.57789 89.0202 1.4536 89.0445 1.30682 89.0445ZM1.54652 88.4426C1.66844 88.4426 1.77143 88.4094 1.85547 88.3432C1.9407 88.2757 2.0058 88.1816 2.05078 88.0608C2.09695 87.9401 2.12003 87.7987 2.12003 87.6365C2.12003 87.4743 2.09754 87.3335 2.05256 87.2139C2.00758 87.0943 1.94247 87.002 1.85724 86.9369C1.77202 86.8718 1.66844 86.8393 1.54652 86.8393C1.42223 86.8393 1.31747 86.873 1.23224 86.9405C1.14702 87.0079 1.0825 87.1014 1.03871 87.221C0.99491 87.3406 0.973011 87.4791 0.973011 87.6365C0.973011 87.7951 0.99491 87.9354 1.03871 88.0573C1.08369 88.178 1.1482 88.2727 1.23224 88.3414C1.31747 88.4089 1.42223 88.4426 1.54652 88.4426ZM0.316051 95.0001V91.3638H1.07244V92.7309H1.09553C1.12867 92.6576 1.17661 92.583 1.23935 92.5072C1.30327 92.4303 1.38613 92.3664 1.48793 92.3155C1.59091 92.2634 1.71875 92.2373 1.87145 92.2373C2.07031 92.2373 2.25379 92.2894 2.42188 92.3936C2.58996 92.4966 2.72431 92.6522 2.82493 92.8606C2.92554 93.0677 2.97585 93.3275 2.97585 93.64C2.97585 93.9443 2.92673 94.2011 2.82848 94.4106C2.73142 94.619 2.59884 94.777 2.43075 94.8847C2.26385 94.9912 2.07682 95.0445 1.86967 95.0445C1.72289 95.0445 1.59801 95.0202 1.49503 94.9717C1.39323 94.9232 1.30978 94.8622 1.24467 94.7888C1.17957 94.7143 1.12985 94.6391 1.09553 94.5633H1.06179V95.0001H0.316051ZM1.05646 93.6365C1.05646 93.7987 1.07895 93.9401 1.12393 94.0608C1.16892 94.1816 1.23402 94.2757 1.31925 94.3432C1.40447 94.4094 1.50805 94.4426 1.62997 94.4426C1.75308 94.4426 1.85724 94.4089 1.94247 94.3414C2.0277 94.2727 2.09221 94.178 2.13601 94.0573C2.18099 93.9354 2.20348 93.7951 2.20348 93.6365C2.20348 93.4791 2.18158 93.3406 2.13778 93.221C2.09399 93.1014 2.02947 93.0079 1.94425 92.9405C1.85902 92.873 1.75426 92.8393 1.62997 92.8393C1.50687 92.8393 1.4027 92.8718 1.31747 92.9369C1.23343 93.002 1.16892 93.0943 1.12393 93.2139C1.07895 93.3335 1.05646 93.4743 1.05646 93.6365ZM0.768821 102.023C0.67294 102.023 0.582978 102.015 0.498935 102C0.416075 101.986 0.34742 101.967 0.292969 101.945L0.463423 101.38C0.552202 101.407 0.632102 101.422 0.703125 101.424C0.775331 101.427 0.837476 101.41 0.88956 101.375C0.942827 101.339 0.986032 101.279 1.01918 101.194L1.06357 101.078L0.0852273 98.2728H0.880682L1.44531 100.276H1.47372L2.04368 98.2728H2.84446L1.78445 101.295C1.73355 101.442 1.6643 101.569 1.5767 101.678C1.49029 101.788 1.3808 101.873 1.24822 101.932C1.11565 101.993 0.955848 102.023 0.768821 102.023ZM1.07955 107.052C0.90554 107.052 0.750474 107.021 0.614347 106.961C0.47822 106.9 0.370502 106.809 0.291193 106.689C0.213068 106.569 0.174006 106.418 0.174006 106.238C0.174006 106.087 0.201823 105.96 0.257457 105.857C0.313092 105.754 0.388849 105.671 0.48473 105.608C0.580611 105.545 0.689512 105.498 0.811435 105.466C0.934541 105.434 1.06357 105.412 1.19851 105.399C1.35713 105.382 1.48497 105.367 1.58203 105.352C1.6791 105.337 1.74953 105.315 1.79332 105.285C1.83712 105.255 1.85902 105.212 1.85902 105.154V105.143C1.85902 105.03 1.82351 104.943 1.75249 104.882C1.68265 104.82 1.58321 104.79 1.45419 104.79C1.31806 104.79 1.20975 104.82 1.12926 104.88C1.04877 104.939 0.995502 105.014 0.96946 105.104L0.269886 105.047C0.305398 104.881 0.375237 104.738 0.479403 104.617C0.58357 104.495 0.717921 104.402 0.882457 104.337C1.04818 104.27 1.23994 104.237 1.45774 104.237C1.60926 104.237 1.75426 104.255 1.89276 104.291C2.03243 104.326 2.15613 104.381 2.26385 104.456C2.37275 104.53 2.45857 104.626 2.52131 104.743C2.58404 104.859 2.61541 104.998 2.61541 105.161V107H1.89808V106.622H1.87678C1.83298 106.707 1.77438 106.782 1.70099 106.847C1.6276 106.911 1.53942 106.962 1.43643 106.998C1.33345 107.034 1.21449 107.052 1.07955 107.052ZM1.29616 106.53C1.40743 106.53 1.50568 106.508 1.59091 106.464C1.67614 106.419 1.74302 106.359 1.79155 106.283C1.84008 106.207 1.86435 106.121 1.86435 106.025V105.736C1.84067 105.751 1.80812 105.766 1.76669 105.779C1.72644 105.79 1.68087 105.802 1.62997 105.812C1.57907 105.822 1.52817 105.831 1.47727 105.839C1.42637 105.846 1.38021 105.853 1.33878 105.858C1.25 105.871 1.17247 105.892 1.10618 105.921C1.03989 105.949 0.9884 105.987 0.951705 106.036C0.91501 106.083 0.896662 106.143 0.896662 106.214C0.896662 106.317 0.933949 106.395 1.00852 106.45C1.08428 106.503 1.18016 106.53 1.29616 106.53ZM0.316051 113V109.364H1.07244V110.731H1.09553C1.12867 110.658 1.17661 110.583 1.23935 110.507C1.30327 110.43 1.38613 110.366 1.48793 110.315C1.59091 110.263 1.71875 110.237 1.87145 110.237C2.07031 110.237 2.25379 110.289 2.42188 110.394C2.58996 110.497 2.72431 110.652 2.82493 110.861C2.92554 111.068 2.97585 111.328 2.97585 111.64C2.97585 111.944 2.92673 112.201 2.82848 112.411C2.73142 112.619 2.59884 112.777 2.43075 112.885C2.26385 112.991 2.07682 113.045 1.86967 113.045C1.72289 113.045 1.59801 113.02 1.49503 112.972C1.39323 112.923 1.30978 112.862 1.24467 112.789C1.17957 112.714 1.12985 112.639 1.09553 112.563H1.06179V113H0.316051ZM1.05646 111.636C1.05646 111.799 1.07895 111.94 1.12393 112.061C1.16892 112.182 1.23402 112.276 1.31925 112.343C1.40447 112.409 1.50805 112.443 1.62997 112.443C1.75308 112.443 1.85724 112.409 1.94247 112.341C2.0277 112.273 2.09221 112.178 2.13601 112.057C2.18099 111.935 2.20348 111.795 2.20348 111.636C2.20348 111.479 2.18158 111.341 2.13778 111.221C2.09399 111.101 2.02947 111.008 1.94425 110.94C1.85902 110.873 1.75426 110.839 1.62997 110.839C1.50687 110.839 1.4027 110.872 1.31747 110.937C1.23343 111.002 1.16892 111.094 1.12393 111.214C1.07895 111.333 1.05646 111.474 1.05646 111.636ZM1.54474 119.053C1.2642 119.053 1.02273 118.997 0.820312 118.883C0.619081 118.768 0.464015 118.606 0.355114 118.396C0.246212 118.186 0.191761 117.937 0.191761 117.649C0.191761 117.368 0.246212 117.122 0.355114 116.91C0.464015 116.698 0.617306 116.533 0.814986 116.415C1.01385 116.297 1.24704 116.237 1.51456 116.237C1.69448 116.237 1.86198 116.266 2.01705 116.324C2.1733 116.381 2.30942 116.467 2.42543 116.582C2.54261 116.697 2.63376 116.841 2.69886 117.015C2.76397 117.188 2.79652 117.39 2.79652 117.622V117.83H0.493608V117.361H2.08452C2.08452 117.252 2.06084 117.156 2.01349 117.072C1.96615 116.988 1.90045 116.922 1.81641 116.875C1.73355 116.826 1.63707 116.802 1.52699 116.802C1.41217 116.802 1.31037 116.829 1.22159 116.882C1.134 116.934 1.06534 117.004 1.01562 117.093C0.965909 117.181 0.940459 117.278 0.939276 117.386V117.832C0.939276 117.967 0.964134 118.083 1.01385 118.182C1.06475 118.28 1.13636 118.356 1.22869 118.409C1.32102 118.462 1.43052 118.489 1.55717 118.489C1.64122 118.489 1.71816 118.477 1.788 118.453C1.85784 118.43 1.91761 118.394 1.96733 118.347C2.01705 118.299 2.05492 118.241 2.08097 118.173L2.78054 118.219C2.74503 118.387 2.67223 118.534 2.56214 118.659C2.45324 118.784 2.31238 118.881 2.13956 118.95C1.96792 119.019 1.76965 119.053 1.54474 119.053ZM1.05824 121.364V125H0.301847V121.364H1.05824ZM1.30682 131.045C1.09967 131.045 0.91205 130.991 0.743963 130.885C0.57706 130.777 0.444484 130.619 0.346236 130.411C0.249171 130.201 0.200639 129.944 0.200639 129.64C0.200639 129.328 0.250947 129.068 0.351562 128.861C0.452178 128.652 0.585938 128.497 0.752841 128.394C0.920928 128.289 1.105 128.237 1.30504 128.237C1.45774 128.237 1.58499 128.263 1.68679 128.315C1.78977 128.366 1.87263 128.43 1.93537 128.507C1.99929 128.583 2.04782 128.658 2.08097 128.731H2.10405V127.364H2.85866V131H2.11293V130.563H2.08097C2.04545 130.639 1.99515 130.714 1.93004 130.789C1.86612 130.862 1.78267 130.923 1.67969 130.972C1.57789 131.02 1.4536 131.045 1.30682 131.045ZM1.54652 130.443C1.66844 130.443 1.77143 130.409 1.85547 130.343C1.9407 130.276 2.0058 130.182 2.05078 130.061C2.09695 129.94 2.12003 129.799 2.12003 129.636C2.12003 129.474 2.09754 129.333 2.05256 129.214C2.00758 129.094 1.94247 129.002 1.85724 128.937C1.77202 128.872 1.66844 128.839 1.54652 128.839C1.42223 128.839 1.31747 128.873 1.23224 128.94C1.14702 129.008 1.0825 129.101 1.03871 129.221C0.99491 129.341 0.973011 129.479 0.973011 129.636C0.973011 129.795 0.99491 129.935 1.03871 130.057C1.08369 130.178 1.1482 130.273 1.23224 130.341C1.31747 130.409 1.42223 130.443 1.54652 130.443ZM0.316051 137V133.364H1.07244V134.731H1.09553C1.12867 134.658 1.17661 134.583 1.23935 134.507C1.30327 134.43 1.38613 134.366 1.48793 134.315C1.59091 134.263 1.71875 134.237 1.87145 134.237C2.07031 134.237 2.25379 134.289 2.42188 134.394C2.58996 134.497 2.72431 134.652 2.82493 134.861C2.92554 135.068 2.97585 135.328 2.97585 135.64C2.97585 135.944 2.92673 136.201 2.82848 136.411C2.73142 136.619 2.59884 136.777 2.43075 136.885C2.26385 136.991 2.07682 137.045 1.86967 137.045C1.72289 137.045 1.59801 137.02 1.49503 136.972C1.39323 136.923 1.30978 136.862 1.24467 136.789C1.17957 136.714 1.12985 136.639 1.09553 136.563H1.06179V137H0.316051ZM1.05646 135.636C1.05646 135.799 1.07895 135.94 1.12393 136.061C1.16892 136.182 1.23402 136.276 1.31925 136.343C1.40447 136.409 1.50805 136.443 1.62997 136.443C1.75308 136.443 1.85724 136.409 1.94247 136.341C2.0277 136.273 2.09221 136.178 2.13601 136.057C2.18099 135.935 2.20348 135.795 2.20348 135.636C2.20348 135.479 2.18158 135.341 2.13778 135.221C2.09399 135.101 2.02947 135.008 1.94425 134.94C1.85902 134.873 1.75426 134.839 1.62997 134.839C1.50687 134.839 1.4027 134.872 1.31747 134.937C1.23343 135.002 1.16892 135.094 1.12393 135.214C1.07895 135.333 1.05646 135.474 1.05646 135.636Z" fill="black"/>
<path d="M1.76847 50.2728V50.841H0.0852273V50.2728H1.76847ZM0.470526 53.0001V50.0758C0.470526 49.8781 0.508996 49.7141 0.585938 49.5839C0.664062 49.4537 0.770597 49.3561 0.90554 49.291C1.04048 49.2259 1.19377 49.1933 1.36541 49.1933C1.48142 49.1933 1.58736 49.2022 1.68324 49.2199C1.7803 49.2377 1.85251 49.2537 1.89986 49.2679L1.76491 49.8361C1.73532 49.8266 1.69863 49.8177 1.65483 49.8094C1.61222 49.8011 1.56842 49.797 1.52344 49.797C1.41217 49.797 1.33464 49.823 1.29084 49.8751C1.24704 49.926 1.22514 49.9976 1.22514 50.09V53.0001H0.470526ZM0.301847 59.0001V56.2728H1.03516V56.7487H1.06357C1.11328 56.5794 1.19673 56.4516 1.31392 56.3652C1.43111 56.2776 1.56605 56.2338 1.71875 56.2338C1.75663 56.2338 1.79747 56.2362 1.84126 56.2409C1.88506 56.2456 1.92353 56.2521 1.95668 56.2604V56.9316C1.92116 56.9209 1.87204 56.9115 1.8093 56.9032C1.74657 56.8949 1.68916 56.8907 1.63707 56.8907C1.5258 56.8907 1.42637 56.915 1.33878 56.9635C1.25237 57.0109 1.18371 57.0772 1.13281 57.1624C1.0831 57.2476 1.05824 57.3459 1.05824 57.4572V59.0001H0.301847ZM1.53409 65.0534C1.25829 65.0534 1.01977 64.9948 0.818537 64.8776C0.61849 64.7592 0.464015 64.5947 0.355114 64.384C0.246212 64.1721 0.191761 63.9265 0.191761 63.6471C0.191761 63.3654 0.246212 63.1192 0.355114 62.9085C0.464015 62.6966 0.61849 62.5321 0.818537 62.4149C1.01977 62.2965 1.25829 62.2373 1.53409 62.2373C1.8099 62.2373 2.04782 62.2965 2.24787 62.4149C2.4491 62.5321 2.60417 62.6966 2.71307 62.9085C2.82197 63.1192 2.87642 63.3654 2.87642 63.6471C2.87642 63.9265 2.82197 64.1721 2.71307 64.384C2.60417 64.5947 2.4491 64.7592 2.24787 64.8776C2.04782 64.9948 1.8099 65.0534 1.53409 65.0534ZM1.53764 64.4675C1.66312 64.4675 1.76787 64.4319 1.85192 64.3609C1.93596 64.2887 1.99929 64.1905 2.0419 64.0662C2.0857 63.9419 2.1076 63.8004 2.1076 63.6418C2.1076 63.4832 2.0857 63.3417 2.0419 63.2175C1.99929 63.0932 1.93596 62.9949 1.85192 62.9227C1.76787 62.8505 1.66312 62.8144 1.53764 62.8144C1.41098 62.8144 1.30445 62.8505 1.21804 62.9227C1.13281 62.9949 1.0683 63.0932 1.0245 63.2175C0.981889 63.3417 0.960582 63.4832 0.960582 63.6418C0.960582 63.8004 0.981889 63.9419 1.0245 64.0662C1.0683 64.1905 1.13281 64.2887 1.21804 64.3609C1.30445 64.4319 1.41098 64.4675 1.53764 64.4675ZM0.301847 71.0001V68.2728H1.02273V68.754H1.05469C1.11151 68.5942 1.2062 68.4682 1.33878 68.3758C1.47135 68.2835 1.62997 68.2373 1.81463 68.2373C2.00166 68.2373 2.16087 68.2841 2.29226 68.3776C2.42365 68.4699 2.51125 68.5954 2.55504 68.754H2.58345C2.63909 68.5978 2.7397 68.4729 2.8853 68.3794C3.03208 68.2847 3.20549 68.2373 3.40554 68.2373C3.66004 68.2373 3.8666 68.3184 4.02521 68.4806C4.18501 68.6416 4.26491 68.87 4.26491 69.166V71.0001H3.5103V69.3151C3.5103 69.1636 3.47005 69.05 3.38956 68.9742C3.30907 68.8984 3.20845 68.8606 3.08771 68.8606C2.9504 68.8606 2.84328 68.9044 2.76634 68.992C2.68939 69.0784 2.65092 69.1926 2.65092 69.3346V71.0001H1.91761V69.2991C1.91761 69.1654 1.87914 69.0588 1.8022 68.9795C1.72644 68.9002 1.62642 68.8606 1.50213 68.8606C1.41809 68.8606 1.34233 68.8819 1.27486 68.9245C1.20857 68.9659 1.15589 69.0245 1.11683 69.1003C1.07777 69.1748 1.05824 69.2624 1.05824 69.363V71.0001H0.301847ZM1.75249 74.2728V74.841H0.110085V74.2728H1.75249ZM0.482955 73.6194H1.23935V76.1621C1.23935 76.2319 1.25 76.2863 1.27131 76.3254C1.29261 76.3633 1.32221 76.3899 1.36009 76.4053C1.39915 76.4207 1.44413 76.4284 1.49503 76.4284C1.53054 76.4284 1.56605 76.4254 1.60156 76.4195C1.63707 76.4124 1.6643 76.4071 1.68324 76.4035L1.8022 76.9664C1.76432 76.9782 1.71106 76.9918 1.6424 77.0072C1.57375 77.0238 1.49029 77.0339 1.39205 77.0374C1.20975 77.0445 1.04995 77.0202 0.912642 76.9646C0.776515 76.909 0.670573 76.8226 0.594815 76.7054C0.519058 76.5882 0.481771 76.4402 0.482955 76.2615V73.6194ZM1.05824 81.4234V83.0001H0.301847V79.3638H1.03693V80.754H1.06889C1.13045 80.593 1.22988 80.467 1.36719 80.3758C1.5045 80.2835 1.67673 80.2373 1.88388 80.2373C2.07327 80.2373 2.2384 80.2788 2.37926 80.3616C2.52131 80.4433 2.63139 80.5611 2.70952 80.715C2.78883 80.8677 2.82789 81.0505 2.8267 81.2636V83.0001H2.07031V81.3986C2.0715 81.2305 2.02888 81.0997 1.94247 81.0062C1.85724 80.9126 1.73769 80.8659 1.58381 80.8659C1.48082 80.8659 1.38968 80.8878 1.31037 80.9316C1.23224 80.9754 1.17069 81.0393 1.12571 81.1233C1.08191 81.2062 1.05942 81.3062 1.05824 81.4234ZM1.54474 89.0534C1.2642 89.0534 1.02273 88.9966 0.820312 88.8829C0.619081 88.7681 0.464015 88.6059 0.355114 88.3964C0.246212 88.1857 0.191761 87.9366 0.191761 87.6489C0.191761 87.3684 0.246212 87.1222 0.355114 86.9103C0.464015 86.6984 0.617306 86.5333 0.814986 86.4149C1.01385 86.2965 1.24704 86.2373 1.51456 86.2373C1.69448 86.2373 1.86198 86.2663 2.01705 86.3243C2.1733 86.3812 2.30942 86.467 2.42543 86.5818C2.54261 86.6966 2.63376 86.841 2.69886 87.015C2.76397 87.1879 2.79652 87.3903 2.79652 87.6223V87.83H0.493608V87.3613H2.08452C2.08452 87.2524 2.06084 87.1559 2.01349 87.0719C1.96615 86.9878 1.90045 86.9221 1.81641 86.8748C1.73355 86.8262 1.63707 86.802 1.52699 86.802C1.41217 86.802 1.31037 86.8286 1.22159 86.8819C1.134 86.934 1.06534 87.0044 1.01562 87.0932C0.965909 87.1808 0.940459 87.2784 0.939276 87.3861V87.8318C0.939276 87.9667 0.964134 88.0833 1.01385 88.1816C1.06475 88.2798 1.13636 88.3556 1.22869 88.4089C1.32102 88.4621 1.43052 88.4888 1.55717 88.4888C1.64122 88.4888 1.71816 88.4769 1.788 88.4532C1.85784 88.4296 1.91761 88.3941 1.96733 88.3467C2.01705 88.2994 2.05492 88.2414 2.08097 88.1727L2.78054 88.2189C2.74503 88.387 2.67223 88.5337 2.56214 88.6592C2.45324 88.7835 2.31238 88.8806 2.13956 88.9504C1.96792 89.0191 1.76965 89.0534 1.54474 89.0534ZM3.3576 91.3638V95.0001H2.69354L1.11151 92.7114H1.08487V95.0001H0.316051V91.3638H0.990767L2.56037 93.6507H2.59233V91.3638H3.3576ZM1.53409 101.053C1.25829 101.053 1.01977 100.995 0.818537 100.878C0.61849 100.759 0.464015 100.595 0.355114 100.384C0.246212 100.172 0.191761 99.9265 0.191761 99.6471C0.191761 99.3654 0.246212 99.1192 0.355114 98.9085C0.464015 98.6966 0.61849 98.5321 0.818537 98.4149C1.01977 98.2965 1.25829 98.2373 1.53409 98.2373C1.8099 98.2373 2.04782 98.2965 2.24787 98.4149C2.4491 98.5321 2.60417 98.6966 2.71307 98.9085C2.82197 99.1192 2.87642 99.3654 2.87642 99.6471C2.87642 99.9265 2.82197 100.172 2.71307 100.384C2.60417 100.595 2.4491 100.759 2.24787 100.878C2.04782 100.995 1.8099 101.053 1.53409 101.053ZM1.53764 100.467C1.66312 100.467 1.76787 100.432 1.85192 100.361C1.93596 100.289 1.99929 100.19 2.0419 100.066C2.0857 99.9419 2.1076 99.8004 2.1076 99.6418C2.1076 99.4832 2.0857 99.3417 2.0419 99.2175C1.99929 99.0932 1.93596 98.9949 1.85192 98.9227C1.76787 98.8505 1.66312 98.8144 1.53764 98.8144C1.41098 98.8144 1.30445 98.8505 1.21804 98.9227C1.13281 98.9949 1.0683 99.0932 1.0245 99.2175C0.981889 99.3417 0.960582 99.4832 0.960582 99.6418C0.960582 99.8004 0.981889 99.9419 1.0245 100.066C1.0683 100.19 1.13281 100.289 1.21804 100.361C1.30445 100.432 1.41098 100.467 1.53764 100.467ZM2.05078 105.839V104.273H2.80717V107H2.08097V106.505H2.05256C1.991 106.665 1.88861 106.793 1.74538 106.89C1.60334 106.987 1.42992 107.036 1.22514 107.036C1.04285 107.036 0.882457 106.994 0.743963 106.911C0.605469 106.828 0.497159 106.711 0.419034 106.558C0.342093 106.405 0.30303 106.222 0.301847 106.009V104.273H1.05824V105.874C1.05942 106.035 1.10263 106.163 1.18786 106.256C1.27308 106.35 1.38731 106.396 1.53054 106.396C1.62169 106.396 1.70691 106.376 1.78622 106.334C1.86553 106.292 1.92945 106.229 1.97798 106.146C2.0277 106.063 2.05196 105.961 2.05078 105.839ZM1.05824 111.423V113H0.301847V110.273H1.02273V110.754H1.05469C1.11506 110.595 1.21626 110.47 1.35831 110.378C1.50036 110.284 1.67259 110.237 1.875 110.237C2.06439 110.237 2.22952 110.279 2.37038 110.362C2.51125 110.444 2.62074 110.563 2.69886 110.717C2.77699 110.869 2.81605 111.052 2.81605 111.264V113H2.05966V111.399C2.06084 111.232 2.01823 111.101 1.93182 111.008C1.84541 110.913 1.72644 110.866 1.57493 110.866C1.47313 110.866 1.38317 110.888 1.30504 110.932C1.2281 110.975 1.16773 111.039 1.12393 111.123C1.08132 111.206 1.05942 111.306 1.05824 111.423ZM0.316051 119V115.364H1.75071C2.02652 115.364 2.26148 115.416 2.45561 115.522C2.64974 115.626 2.7977 115.771 2.8995 115.957C3.00249 116.141 3.05398 116.355 3.05398 116.596C3.05398 116.837 3.00189 117.051 2.89773 117.235C2.79356 117.42 2.64264 117.564 2.44496 117.667C2.24846 117.77 2.01054 117.821 1.73118 117.821H0.816761V117.205H1.60689C1.75485 117.205 1.87678 117.18 1.97266 117.129C2.06972 117.077 2.14193 117.005 2.18928 116.914C2.23781 116.821 2.26207 116.716 2.26207 116.596C2.26207 116.475 2.23781 116.37 2.18928 116.28C2.14193 116.189 2.06972 116.118 1.97266 116.069C1.87559 116.018 1.75249 115.992 1.60334 115.992H1.08487V119H0.316051ZM0.301847 125V122.273H1.03516V122.749H1.06357C1.11328 122.579 1.19673 122.452 1.31392 122.365C1.43111 122.278 1.56605 122.234 1.71875 122.234C1.75663 122.234 1.79747 122.236 1.84126 122.241C1.88506 122.246 1.92353 122.252 1.95668 122.26V122.932C1.92116 122.921 1.87204 122.911 1.8093 122.903C1.74657 122.895 1.68916 122.891 1.63707 122.891C1.5258 122.891 1.42637 122.915 1.33878 122.964C1.25237 123.011 1.18371 123.077 1.13281 123.162C1.0831 123.248 1.05824 123.346 1.05824 123.457V125H0.301847ZM1.53409 131.053C1.25829 131.053 1.01977 130.995 0.818537 130.878C0.61849 130.759 0.464015 130.595 0.355114 130.384C0.246212 130.172 0.191761 129.926 0.191761 129.647C0.191761 129.365 0.246212 129.119 0.355114 128.909C0.464015 128.697 0.61849 128.532 0.818537 128.415C1.01977 128.297 1.25829 128.237 1.53409 128.237C1.8099 128.237 2.04782 128.297 2.24787 128.415C2.4491 128.532 2.60417 128.697 2.71307 128.909C2.82197 129.119 2.87642 129.365 2.87642 129.647C2.87642 129.926 2.82197 130.172 2.71307 130.384C2.60417 130.595 2.4491 130.759 2.24787 130.878C2.04782 130.995 1.8099 131.053 1.53409 131.053ZM1.53764 130.467C1.66312 130.467 1.76787 130.432 1.85192 130.361C1.93596 130.289 1.99929 130.19 2.0419 130.066C2.0857 129.942 2.1076 129.8 2.1076 129.642C2.1076 129.483 2.0857 129.342 2.0419 129.217C1.99929 129.093 1.93596 128.995 1.85192 128.923C1.76787 128.851 1.66312 128.814 1.53764 128.814C1.41098 128.814 1.30445 128.851 1.21804 128.923C1.13281 128.995 1.0683 129.093 1.0245 129.217C0.981889 129.342 0.960582 129.483 0.960582 129.642C0.960582 129.8 0.981889 129.942 1.0245 130.066C1.0683 130.19 1.13281 130.289 1.21804 130.361C1.30445 130.432 1.41098 130.467 1.53764 130.467ZM0.301847 134.273H1.05824V137.135C1.05824 137.346 1.01681 137.516 0.933949 137.646C0.851089 137.777 0.732126 137.872 0.57706 137.932C0.423177 137.993 0.23911 138.023 0.024858 138.023C-0.00118371 138.023 -0.0260417 138.022 -0.0497159 138.021C-0.0745739 138.021 -0.100616 138.02 -0.127841 138.019V137.428C-0.107718 137.429 -0.0899621 137.43 -0.0745739 137.43C-0.0603693 137.431 -0.0449811 137.432 -0.0284091 137.432C0.0935133 137.432 0.178741 137.406 0.227273 137.353C0.276989 137.303 0.301847 137.226 0.301847 137.123V134.273ZM0.678267 133.921C0.566998 133.921 0.471117 133.884 0.390625 133.809C0.310133 133.734 0.269886 133.643 0.269886 133.538C0.269886 133.434 0.310133 133.344 0.390625 133.27C0.471117 133.194 0.566998 133.156 0.678267 133.156C0.791903 133.156 0.888376 133.194 0.967685 133.27C1.04818 133.344 1.08842 133.434 1.08842 133.538C1.08842 133.643 1.04818 133.734 0.967685 133.809C0.888376 133.884 0.791903 133.921 0.678267 133.921ZM1.54474 143.053C1.2642 143.053 1.02273 142.997 0.820312 142.883C0.619081 142.768 0.464015 142.606 0.355114 142.396C0.246212 142.186 0.191761 141.937 0.191761 141.649C0.191761 141.368 0.246212 141.122 0.355114 140.91C0.464015 140.698 0.617306 140.533 0.814986 140.415C1.01385 140.297 1.24704 140.237 1.51456 140.237C1.69448 140.237 1.86198 140.266 2.01705 140.324C2.1733 140.381 2.30942 140.467 2.42543 140.582C2.54261 140.697 2.63376 140.841 2.69886 141.015C2.76397 141.188 2.79652 141.39 2.79652 141.622V141.83H0.493608V141.361H2.08452C2.08452 141.252 2.06084 141.156 2.01349 141.072C1.96615 140.988 1.90045 140.922 1.81641 140.875C1.73355 140.826 1.63707 140.802 1.52699 140.802C1.41217 140.802 1.31037 140.829 1.22159 140.882C1.134 140.934 1.06534 141.004 1.01562 141.093C0.965909 141.181 0.940459 141.278 0.939276 141.386V141.832C0.939276 141.967 0.964134 142.083 1.01385 142.182C1.06475 142.28 1.13636 142.356 1.22869 142.409C1.32102 142.462 1.43052 142.489 1.55717 142.489C1.64122 142.489 1.71816 142.477 1.788 142.453C1.85784 142.43 1.91761 142.394 1.96733 142.347C2.01705 142.299 2.05492 142.241 2.08097 142.173L2.78054 142.219C2.74503 142.387 2.67223 142.534 2.56214 142.659C2.45324 142.784 2.31238 142.881 2.13956 142.95C1.96792 143.019 1.76965 143.053 1.54474 143.053ZM1.53409 149.053C1.25473 149.053 1.01444 148.994 0.81321 148.876C0.613163 148.756 0.45928 148.591 0.351562 148.379C0.245028 148.167 0.191761 147.923 0.191761 147.647C0.191761 147.368 0.24562 147.123 0.353338 146.912C0.46224 146.7 0.616714 146.535 0.816761 146.417C1.01681 146.297 1.25473 146.237 1.53054 146.237C1.76847 146.237 1.9768 146.281 2.15554 146.367C2.33428 146.453 2.47573 146.575 2.5799 146.731C2.68407 146.887 2.74148 147.071 2.75213 147.281H2.03835C2.01823 147.145 1.96496 147.036 1.87855 146.953C1.79332 146.869 1.68146 146.827 1.54297 146.827C1.42578 146.827 1.32339 146.859 1.2358 146.923C1.14938 146.985 1.08191 147.077 1.03338 147.198C0.984849 147.319 0.960582 147.465 0.960582 147.636C0.960582 147.81 0.984257 147.958 1.03161 148.08C1.08014 148.202 1.1482 148.295 1.2358 148.359C1.32339 148.423 1.42578 148.455 1.54297 148.455C1.62938 148.455 1.70691 148.437 1.77557 148.402C1.84541 148.366 1.90282 148.315 1.9478 148.247C1.99396 148.179 2.02415 148.096 2.03835 148H2.75213C2.74029 148.209 2.68348 148.392 2.58168 148.551C2.48106 148.708 2.34197 148.831 2.16442 148.92C1.98686 149.009 1.77675 149.053 1.53409 149.053ZM1.75249 152.273V152.841H0.110085V152.273H1.75249ZM0.482955 151.619H1.23935V154.162C1.23935 154.232 1.25 154.286 1.27131 154.325C1.29261 154.363 1.32221 154.39 1.36009 154.405C1.39915 154.421 1.44413 154.428 1.49503 154.428C1.53054 154.428 1.56605 154.425 1.60156 154.42C1.63707 154.412 1.6643 154.407 1.68324 154.404L1.8022 154.966C1.76432 154.978 1.71106 154.992 1.6424 155.007C1.57375 155.024 1.49029 155.034 1.39205 155.037C1.20975 155.045 1.04995 155.02 0.912642 154.965C0.776515 154.909 0.670573 154.823 0.594815 154.705C0.519058 154.588 0.481771 154.44 0.482955 154.261V151.619Z" fill="black"/>
</g>
<defs>
<clipPath id="clip0_102_641">
<rect width="60" height="60" fill="white"/>
</clipPath>
</defs>
</svg>
