<svg width="75" height="44" viewBox="0 0 75 44" fill="none" xmlns="http://www.w3.org/2000/svg">
<path d="M74.2506 35.827L39.2277 1.27342C38.7273 0.779185 38.1516 0.531677 37.5004 0.531677C36.8492 0.531677 36.2725 0.779185 35.7718 1.27342L0.751766 35.827C0.250062 36.3221 0 36.8901 0 37.5328C0 38.1754 0.250852 38.7442 0.751766 39.2381L4.50849 42.9445C5.00941 43.4387 5.58587 43.6857 6.23708 43.6857C6.8883 43.6857 7.46475 43.4387 7.96567 42.9445L37.5004 13.8041L67.0362 42.9463C67.5368 43.4406 68.1136 43.686 68.7637 43.686C69.416 43.686 69.9924 43.439 70.4931 42.9463L74.2503 39.2384C74.751 38.7444 74.9997 38.1754 74.9997 37.5331C75 36.8901 74.7513 36.3213 74.2506 35.827Z" fill="white"/>
</svg>
