<svg width="70" height="70" viewBox="0 0 70 70" fill="none" xmlns="http://www.w3.org/2000/svg">
<g filter="url(#filter0_d_100_595)">
<path d="M20.4016 20.4352C19.2626 21.5742 19.2626 23.421 20.4016 24.56L30.8583 35.0166L20.4016 45.4734C19.2626 46.6124 19.2626 48.4592 20.4016 49.5982C21.5407 50.7371 23.3874 50.7371 24.5264 49.5982L34.9831 39.1414L45.4399 49.5982C46.5788 50.7371 48.4257 50.7371 49.5646 49.5982C50.7036 48.4592 50.7036 46.6124 49.5646 45.4734L39.1078 35.0166L49.5646 24.56C50.7036 23.421 50.7036 21.5743 49.5646 20.4353C48.4254 19.2962 46.5788 19.2962 45.4399 20.4353L34.9831 30.8919L24.5264 20.4352C23.3874 19.2962 21.5407 19.2962 20.4016 20.4352Z" fill="white"/>
<path d="M31.2119 35.3702L31.5654 35.0166L31.2119 34.663L20.7552 24.2064C19.8114 23.2627 19.8114 21.7325 20.7552 20.7887C21.699 19.845 23.2291 19.845 24.1729 20.7887L34.6295 31.2454L34.9831 31.599L35.3366 31.2454L45.7934 20.7888L45.7935 20.7888C46.7371 19.8451 48.2671 19.845 49.2111 20.7888C50.1548 21.7326 50.1548 23.2627 49.2111 24.2065C49.2111 24.2065 49.2111 24.2065 49.2111 24.2065L38.7543 34.663L38.4007 35.0166L38.7542 35.3702L49.2111 45.827C50.1548 46.7707 50.1548 48.3009 49.2111 49.2446C48.2674 50.1883 46.7371 50.1883 45.7934 49.2446L35.3366 38.7878L34.9831 38.4342L34.6295 38.7878L24.1729 49.2446C24.1729 49.2446 24.1729 49.2446 24.1729 49.2446C23.2291 50.1883 21.6989 50.1883 20.7552 49.2446L20.4016 49.5982L20.7552 49.2446C19.8114 48.3009 19.8114 46.7707 20.7552 45.827L20.7552 45.827L31.2119 35.3702Z" stroke="black"/>
</g>
<defs>
<filter id="filter0_d_100_595" x="15.5474" y="19.5809" width="38.8715" height="38.8715" filterUnits="userSpaceOnUse" color-interpolation-filters="sRGB">
<feFlood flood-opacity="0" result="BackgroundImageFix"/>
<feColorMatrix in="SourceAlpha" type="matrix" values="0 0 0 0 0 0 0 0 0 0 0 0 0 0 0 0 0 0 127 0" result="hardAlpha"/>
<feOffset dy="4"/>
<feGaussianBlur stdDeviation="2"/>
<feComposite in2="hardAlpha" operator="out"/>
<feColorMatrix type="matrix" values="0 0 0 0 0 0 0 0 0 0 0 0 0 0 0 0 0 0 0.25 0"/>
<feBlend mode="normal" in2="BackgroundImageFix" result="effect1_dropShadow_100_595"/>
<feBlend mode="normal" in="SourceGraphic" in2="effect1_dropShadow_100_595" result="shape"/>
</filter>
</defs>
</svg>
