<svg width="30" height="26" viewBox="0 0 30 26" fill="none" xmlns="http://www.w3.org/2000/svg">
<g clip-path="url(#clip0_394_5)">
<path d="M22.6409 12.8705C21.6162 12.4836 20.5581 12.175 19.5055 11.9595C18.9541 11.8616 18.6033 12.2044 18.5476 12.5522C18.336 14.1293 16.81 15.3195 15 15.3195C13.1901 15.3195 11.6641 14.1293 11.4525 12.5522C11.4079 12.1848 11.0014 11.8616 10.4946 11.9595C9.44204 12.175 8.38947 12.4836 7.36474 12.8705C5.63831 13.522 4.52448 15.0158 4.52448 16.6762V24.8754C4.52448 25.2574 4.87533 25.566 5.30973 25.566H24.6904C25.1248 25.566 25.4756 25.2574 25.4756 24.8754V16.6811C25.4756 15.0158 24.3618 13.522 22.6409 12.8705ZM19.9287 13.4828C21.2431 13.8207 22.3792 14.1881 22.886 14.6387H19.3106C19.5723 14.286 19.7839 13.8991 19.9287 13.4828ZM10.0713 13.4828C10.2106 13.8991 10.4222 14.286 10.684 14.6387H7.10856C7.58194 14.2175 8.6902 13.8403 10.0713 13.4828ZM6.09498 16.6811C6.09498 16.4558 6.13396 16.2354 6.18965 16.0248H12.2879C13.0787 16.4558 14.0087 16.7056 14.9945 16.7056C15.9858 16.7056 16.9158 16.4558 17.7067 16.0248H23.8049C23.8606 16.2354 23.8995 16.4558 23.8995 16.6811V18.0672H6.09498V16.6811ZM23.9051 24.1897H6.09498V22.8721H23.9051V24.1897ZM23.9051 21.486H6.09498V19.4485H23.9051V21.486Z" fill="white"/>
<path d="M15 0.689423C11.6363 0.689423 8.89624 3.23145 8.89624 6.35633C8.89624 9.4812 11.6363 12.0232 15 12.0232C18.3638 12.0232 21.1038 9.4812 21.1038 6.35633C21.1038 3.23145 18.3638 0.689423 15 0.689423ZM19.3384 5.55307C19.3384 5.90082 18.8706 6.19469 18.3137 6.19469C18.0241 6.19469 17.3112 5.87143 16.5872 5.4649C17.2667 5.17103 17.974 4.91144 18.3137 4.91144C18.8706 4.91144 19.3384 5.20531 19.3384 5.55307ZM15 2.07064C16.3533 2.07064 17.5674 2.6388 18.4028 3.53022C18.3749 3.53022 18.3471 3.52532 18.3192 3.52532C17.3391 3.53022 15.724 4.2796 15 4.64205C14.276 4.2796 12.661 3.53022 11.6864 3.53022C11.6585 3.53022 11.6307 3.53512 11.6028 3.53512C12.4326 2.6388 13.6467 2.07064 15 2.07064ZM11.6864 4.91144C12.0038 4.91144 12.6944 5.15143 13.4128 5.4649C12.6888 5.87143 11.9815 6.19469 11.6864 6.19469C11.1295 6.19469 10.6617 5.90082 10.6617 5.55307C10.6617 5.20531 11.1295 4.91144 11.6864 4.91144ZM15 10.6469C12.8782 10.6469 11.0961 9.2559 10.606 7.38979C11.8145 7.94325 13.3627 7.24775 15 6.1898C16.5538 7.16938 18.0798 7.96285 19.3941 7.38979C18.904 9.2559 17.1219 10.6469 15 10.6469Z" fill="white"/>
</g>
<defs>
<clipPath id="clip0_394_5">
<rect x="0.857178" y="0.689407" width="28.2857" height="24.8766" rx="6" fill="white"/>
</clipPath>
</defs>
</svg>
