<svg width="34" height="54" viewBox="0 0 34 54" fill="none" xmlns="http://www.w3.org/2000/svg">
<path d="M6.3125 4.6875C4.39876 6.2196 2.85045 8.15887 1.78015 10.3644C0.709838 12.5698 0.144422 14.9861 0.125 17.4375C0.125 18.4321 0.520089 19.3859 1.22335 20.0892C1.92661 20.7924 2.88044 21.1875 3.875 21.1875C4.86956 21.1875 5.82339 20.7924 6.52665 20.0892C7.22991 19.3859 7.625 18.4321 7.625 17.4375C7.67174 16.0825 7.99528 14.7513 8.5757 13.526C9.15611 12.3007 9.98114 11.2071 11 10.3125C12.1076 9.46485 13.3811 8.85983 14.7379 8.53679C16.0947 8.21374 17.5043 8.17992 18.875 8.4375C20.8183 8.76413 22.6051 9.70689 23.9716 11.1266C25.3381 12.5464 26.2119 14.3678 26.4641 16.3222C26.7163 18.2765 26.3334 20.2601 25.372 21.9803C24.4107 23.7004 22.9217 25.0658 21.125 25.875C17.9434 27.309 15.4521 29.9349 14.1875 33.1875C13.8165 34.1076 13.8252 35.1373 14.2118 36.051C14.5984 36.9647 15.3313 37.688 16.25 38.0625H17.75C18.4971 38.0614 19.2249 37.8255 19.8306 37.3881C20.4363 36.9506 20.8891 36.3339 21.125 35.625C21.7872 34.3363 22.8363 33.2872 24.125 32.625C27.3168 31.1438 29.9588 28.6915 31.6732 25.6186C33.3876 22.5457 34.0868 19.0095 33.6709 15.5154C33.2549 12.0213 31.7451 8.74804 29.3571 6.16354C26.9692 3.57903 23.8254 1.8155 20.375 1.125C17.9163 0.563861 15.3596 0.594196 12.9149 1.21351C10.4703 1.83283 8.20745 3.02344 6.3125 4.6875Z" fill="#FCF7F7"/>
<path d="M17 53.25C19.0711 53.25 20.75 51.5711 20.75 49.5C20.75 47.4289 19.0711 45.75 17 45.75C14.9289 45.75 13.25 47.4289 13.25 49.5C13.25 51.5711 14.9289 53.25 17 53.25Z" fill="#FCF7F7"/>
<path d="M6.3125 4.6875C4.39876 6.2196 2.85045 8.15887 1.78015 10.3644C0.709838 12.5698 0.144422 14.9861 0.125 17.4375C0.125 18.4321 0.520089 19.3859 1.22335 20.0892C1.92661 20.7924 2.88044 21.1875 3.875 21.1875C4.86956 21.1875 5.82339 20.7924 6.52665 20.0892C7.22991 19.3859 7.625 18.4321 7.625 17.4375C7.67174 16.0825 7.99528 14.7513 8.5757 13.526C9.15611 12.3007 9.98114 11.2071 11 10.3125C12.1076 9.46485 13.3811 8.85983 14.7379 8.53679C16.0947 8.21374 17.5043 8.17992 18.875 8.4375C20.8183 8.76413 22.6051 9.70689 23.9716 11.1266C25.3381 12.5464 26.2119 14.3678 26.4641 16.3222C26.7163 18.2765 26.3334 20.2601 25.372 21.9803C24.4107 23.7004 22.9217 25.0658 21.125 25.875C17.9434 27.309 15.4521 29.9349 14.1875 33.1875C13.8165 34.1076 13.8252 35.1373 14.2118 36.051C14.5984 36.9647 15.3313 37.688 16.25 38.0625H17.75C18.4971 38.0614 19.2249 37.8255 19.8306 37.3881C20.4363 36.9506 20.8891 36.3339 21.125 35.625C21.7872 34.3363 22.8363 33.2872 24.125 32.625C27.3168 31.1438 29.9588 28.6915 31.6732 25.6186C33.3876 22.5457 34.0868 19.0095 33.6709 15.5154C33.2549 12.0213 31.7451 8.74804 29.3571 6.16354C26.9692 3.57903 23.8254 1.8155 20.375 1.125C17.9163 0.563861 15.3596 0.594196 12.9149 1.21351C10.4703 1.83283 8.20745 3.02344 6.3125 4.6875Z" fill="#FCF7F7"/>
<path d="M17 53.25C19.0711 53.25 20.75 51.5711 20.75 49.5C20.75 47.4289 19.0711 45.75 17 45.75C14.9289 45.75 13.25 47.4289 13.25 49.5C13.25 51.5711 14.9289 53.25 17 53.25Z" fill="#FCF7F7"/>
<path d="M6.3125 4.6875C4.39876 6.2196 2.85045 8.15887 1.78015 10.3644C0.709838 12.5698 0.144422 14.9861 0.125 17.4375C0.125 18.4321 0.520089 19.3859 1.22335 20.0892C1.92661 20.7924 2.88044 21.1875 3.875 21.1875C4.86956 21.1875 5.82339 20.7924 6.52665 20.0892C7.22991 19.3859 7.625 18.4321 7.625 17.4375C7.67174 16.0825 7.99528 14.7513 8.5757 13.526C9.15611 12.3007 9.98114 11.2071 11 10.3125C12.1076 9.46485 13.3811 8.85983 14.7379 8.53679C16.0947 8.21374 17.5043 8.17992 18.875 8.4375C20.8183 8.76413 22.6051 9.70689 23.9716 11.1266C25.3381 12.5464 26.2119 14.3678 26.4641 16.3222C26.7163 18.2765 26.3334 20.2601 25.372 21.9803C24.4107 23.7004 22.9217 25.0658 21.125 25.875C17.9434 27.309 15.4521 29.9349 14.1875 33.1875C13.8165 34.1076 13.8252 35.1373 14.2118 36.051C14.5984 36.9647 15.3313 37.688 16.25 38.0625H17.75C18.4971 38.0614 19.2249 37.8255 19.8306 37.3881C20.4363 36.9506 20.8891 36.3339 21.125 35.625C21.7872 34.3363 22.8363 33.2872 24.125 32.625C27.3168 31.1438 29.9588 28.6915 31.6732 25.6186C33.3876 22.5457 34.0868 19.0095 33.6709 15.5154C33.2549 12.0213 31.7451 8.74804 29.3571 6.16354C26.9692 3.57903 23.8254 1.8155 20.375 1.125C17.9163 0.563861 15.3596 0.594196 12.9149 1.21351C10.4703 1.83283 8.20745 3.02344 6.3125 4.6875Z" fill="#FCF7F7"/>
<path d="M17 53.25C19.0711 53.25 20.75 51.5711 20.75 49.5C20.75 47.4289 19.0711 45.75 17 45.75C14.9289 45.75 13.25 47.4289 13.25 49.5C13.25 51.5711 14.9289 53.25 17 53.25Z" fill="#FCF7F7"/>
</svg>
