<svg width="44" height="29" viewBox="0 0 44 29" fill="none" xmlns="http://www.w3.org/2000/svg">
<path d="M0.436 21.784C0.436 20.272 0.856 18.956 1.696 17.836C2.536 16.716 3.628 15.862 4.972 15.274C6.036 14.798 7.282 14.322 8.71 13.846C10.138 13.37 11.244 12.866 12.028 12.334C12.812 11.802 13.204 11.172 13.204 10.444V6.958C13.204 6.09 12.854 5.516 12.154 5.236C11.398 4.928 10.222 4.774 8.626 4.774C6.694 4.774 4.146 5.124 0.982 5.824V1.204C3.782 0.615999 6.708 0.321998 9.76 0.321998C13.064 0.321998 15.514 0.825999 17.11 1.834C18.734 2.842 19.546 4.522 19.546 6.874V10.654C19.546 12.082 19.112 13.328 18.244 14.392C17.404 15.428 16.312 16.212 14.968 16.744C13.708 17.276 12.42 17.752 11.104 18.172C9.676 18.676 8.542 19.236 7.702 19.852C6.89 20.468 6.484 21.196 6.484 22.036V23.422H19.588V28H0.436V21.784ZM33.6193 28.42C31.6873 28.42 28.7893 28.266 24.9253 27.958V22.876C28.3973 23.52 31.0153 23.842 32.7793 23.842C34.3193 23.842 35.4393 23.674 36.1393 23.338C36.8393 22.974 37.1893 22.414 37.1893 21.658V17.584C37.1893 16.828 36.9373 16.296 36.4333 15.988C35.9293 15.652 35.1033 15.484 33.9553 15.484H25.5553V0.741998H42.7753V5.446H31.6873V10.99H35.9713C37.5953 10.99 39.1773 11.298 40.7173 11.914C41.5573 12.278 42.2293 12.838 42.7333 13.594C43.2373 14.35 43.4893 15.232 43.4893 16.24V21.952C43.4893 23.044 43.2793 24.024 42.8593 24.892C42.4393 25.732 41.9073 26.376 41.2633 26.824C40.7033 27.244 39.9473 27.58 38.9953 27.832C38.0713 28.084 37.1753 28.252 36.3073 28.336C35.2993 28.392 34.4033 28.42 33.6193 28.42Z" fill="black"/>
</svg>
