<svg width="50" height="50" viewBox="0 0 50 50" fill="none" xmlns="http://www.w3.org/2000/svg">
<path d="M16.6667 18.75C18.7489 18.75 20.8333 20.3117 25 20.3117C29.1667 20.3117 31.2511 18.75 33.3333 18.75C39.5844 18.75 35.4156 21.875 33.3333 23.4383C33.3333 39.0633 50 46.8767 50 50H0C0 46.875 16.6667 39.0633 16.6667 23.4383C14.5822 21.8767 10.4156 18.75 16.6644 18.75H16.6667ZM27.0844 17.1883C27.0844 18.0517 26.1511 18.75 25.0022 18.75C23.8533 18.75 22.92 18.05 22.92 17.1883C22.92 16.3267 23.8533 15.6267 25.0022 15.6267C26.1511 15.625 27.0844 16.3267 27.0844 17.1883ZM29.1667 3.125C29.1667 4.85 27.3022 6.25 25 6.25C22.6978 6.25 20.8333 4.85167 20.8333 3.125C20.8333 1.4 22.6978 0 25 0C27.3022 0 29.1667 1.4 29.1667 3.125ZM22.9156 10.9383C22.9156 12.6633 21.0511 14.0633 18.7489 14.0633C16.4467 14.0633 14.5822 12.665 14.5822 10.9383C14.5822 9.21333 16.4467 7.81333 18.7489 7.81333C21.0511 7.81333 22.9156 9.21167 22.9156 10.9383ZM31.2489 12.5C31.2489 13.3633 30.3156 14.0617 29.1667 14.0617C28.0178 14.0617 27.0844 13.3617 27.0844 12.5C27.0844 11.6383 28.0178 10.9383 29.1667 10.9383C30.3156 10.9383 31.2489 11.6383 31.2489 12.5Z" fill="black"/>
</svg>
