<svg width="50" height="50" viewBox="0 0 50 50" fill="none" xmlns="http://www.w3.org/2000/svg">
<path d="M46.6383 21.1849L46.6425 21.1787L33.7562 2.05926C32.8643 0.735572 31.675 0.00416389 30.4076 0C30.4038 0 30.4002 0 30.3964 0C29.1333 0 27.9458 0.723081 27.0521 2.037L25.4779 4.35184C25.3058 4.60498 25.1046 4.64274 25.0001 4.64274C24.8956 4.64274 24.6944 4.60498 24.5224 4.35184L22.9479 2.03686C22.0543 0.723081 20.867 0.000143504 19.6039 0.000143504C19.6001 0.000143504 19.5963 0.000143504 19.5927 0.000143504C18.3252 0.00430739 17.1359 0.735716 16.244 2.0594L3.35781 21.1787L3.36201 21.1849C1.28564 24.2422 0 28.46 0 33.1115C0 42.4239 5.15283 50 11.4865 50C15.9735 50 19.8653 46.1955 21.7548 40.6673C22.6946 41.5431 23.8073 42.0526 25.0001 42.0526C26.1928 42.0526 27.3055 41.5431 28.2454 40.6673C30.1349 46.1955 34.0267 50 38.5137 50C44.8472 49.9999 50 42.4237 50 33.1115C50 28.46 48.7144 24.2422 46.6383 21.1849ZM11.4865 44.0393C7.38828 44.0393 4.0541 39.1371 4.0541 33.1115C4.0541 27.086 7.38828 22.1838 11.4865 22.1838C15.5848 22.1838 18.9189 27.086 18.9189 33.1115C18.9189 39.1371 15.5848 44.0393 11.4865 44.0393ZM25 37.0852C23.5073 37.0852 22.2973 35.3062 22.2973 33.1114C22.2973 30.9166 23.5072 29.1376 25 29.1376C26.4928 29.1376 27.7027 30.9166 27.7027 33.1114C27.7027 35.3062 26.4927 37.0852 25 37.0852ZM38.5135 44.0393C34.4152 44.0393 31.0811 39.1371 31.0811 33.1115C31.0811 27.086 34.4152 22.1838 38.5135 22.1838C42.6117 22.1838 45.9459 27.086 45.9459 33.1115C45.9459 39.1371 42.6117 44.0393 38.5135 44.0393Z" fill="black"/>
</svg>
