<svg width="50" height="50" viewBox="0 0 50 50" fill="none" xmlns="http://www.w3.org/2000/svg">
<path d="M32.378 39.0063C32.528 39.1563 32.4671 39.4188 32.264 39.4844C20.2327 43.3375 7.21396 37.136 3.21084 25.5125C3.09834 25.1844 3.09834 24.8188 3.21084 24.4891C4.37178 21.1188 6.32021 18.1656 8.81709 15.7813C8.9124 15.6906 9.06396 15.6938 9.15615 15.786L15.878 22.5078C15.9249 22.5547 15.9421 22.6203 15.9265 22.6844C14.1827 29.4735 20.5327 35.8016 27.2952 34.0813C27.3718 34.061 27.4437 34.075 27.4999 34.1313C28.0593 34.6891 31.3202 37.9485 32.378 39.0063Z" fill="black"/>
<path d="M38.5624 36.3531C42.3218 33.7094 45.2515 29.9797 46.7905 25.5078C46.903 25.1797 46.903 24.8203 46.7905 24.4922C43.678 15.45 34.9218 9.37502 24.9999 9.37502C21.1265 9.37502 17.4358 10.3078 14.1858 11.9766L5.79209 3.58284C5.18115 2.9719 4.19365 2.9719 3.58271 3.58284C2.97178 4.19377 2.97178 5.18127 3.58271 5.79221L44.2077 46.4172C44.8186 47.0281 45.8061 47.0281 46.4171 46.4172C47.028 45.8063 47.028 44.8188 46.4171 44.2078L38.5624 36.3531ZM24.9999 15.625C30.1702 15.625 34.3749 19.8297 34.3749 25C34.3749 27.0219 33.7249 28.8906 32.6327 30.4235L19.5765 17.3672C21.1093 16.275 22.978 15.625 24.9999 15.625Z" fill="black"/>
</svg>
