<svg width="50" height="50" viewBox="0 0 50 50" fill="none" xmlns="http://www.w3.org/2000/svg">
<g clip-path="url(#clip0_42_633)">
<path d="M48.9044 21.8989L43.6523 20.6603C43.1709 18.5838 42.3546 16.6366 41.2589 14.8797L44.0961 10.2906C44.443 9.72783 44.3583 9.00313 43.8913 8.53623L41.4636 6.1085C40.9976 5.64248 40.272 5.55771 39.7101 5.90459L35.1211 8.74189C33.3641 7.64629 31.4179 6.829 29.3414 6.34766L28.1019 1.0957C27.9503 0.454004 27.3764 0 26.7176 0H23.2834C22.6237 0 22.0507 0.454004 21.899 1.09561L20.6595 6.34766C18.583 6.8291 16.6366 7.64551 14.8807 8.74111L10.2907 5.90391C9.72969 5.55781 9.00234 5.64268 8.53721 6.10781L6.10869 8.53633C5.6418 9.00313 5.55781 9.72881 5.90479 10.2898L8.74111 14.8797C7.64541 16.6367 6.829 18.5829 6.34766 20.6594L1.09648 21.898C0.454785 22.0506 0 22.6246 0 23.2824V26.7166C0 27.3771 0.454004 27.9493 1.09648 28.1009L6.34766 29.3405C6.8291 31.4171 7.64639 33.3634 8.74199 35.1203L5.90479 39.7093C5.55869 40.2704 5.64268 40.9985 6.10791 41.4637L8.53643 43.8914C9.00332 44.3591 9.72881 44.4422 10.2908 44.0952L14.8808 41.2589C16.6368 42.3546 18.5831 43.1709 20.6596 43.6522L21.899 48.9043C22.0507 49.5469 22.6237 50 23.2834 50H26.7176C27.3764 50 27.9503 49.5469 28.1019 48.9043L29.3414 43.6522C31.417 43.1708 33.3641 42.3546 35.1203 41.2589L39.7102 44.0961C40.2721 44.443 40.9977 44.3582 41.4637 43.8914L43.8923 41.4637C44.3583 40.9977 44.4431 40.2713 44.0962 39.7102L41.259 35.1203C42.3547 33.3642 43.171 31.4171 43.6524 29.3414L48.9045 28.1019C49.5479 27.9494 50.0001 27.3764 50.0001 26.7167V23.2832C50 22.6236 49.5469 22.0506 48.9044 21.8989ZM25 38.1459C17.7408 38.1459 11.8549 32.26 11.8549 25C11.8549 17.74 17.7408 11.854 25 11.854C32.2616 11.854 38.1468 17.7399 38.1468 25C38.1468 32.26 32.2616 38.1459 25 38.1459Z" fill="black"/>
<path d="M25.0001 16.6683C20.3991 16.6683 16.6685 20.3982 16.6685 25C16.6685 29.6017 20.3991 33.3315 25.0001 33.3315C29.602 33.3315 33.3317 29.6018 33.3317 25C33.3317 20.3981 29.602 16.6683 25.0001 16.6683ZM25.0001 29.0878C22.7429 29.0878 20.9122 27.2571 20.9122 25C20.9122 22.7427 22.7429 20.9121 25.0001 20.9121C27.2573 20.9121 29.0879 22.7427 29.0879 25C29.0879 27.2572 27.2573 29.0878 25.0001 29.0878Z" fill="black"/>
</g>
<defs>
<clipPath id="clip0_42_633">
<rect width="50" height="50" fill="white"/>
</clipPath>
</defs>
</svg>
