<svg width="50" height="50" viewBox="0 0 50 50" fill="none" xmlns="http://www.w3.org/2000/svg">
<path d="M0 0V50H50V0H0ZM3.57143 3.57143H14.2857V46.4286H12.5V31.3616C11.4319 32.625 10.7143 34.1518 10.7143 35.7143V46.4286H3.57143V3.57143ZM17.8571 3.57143H32.1429V46.4286H30.3571V28.5714H19.6429V46.4286H17.8571V3.57143ZM35.7143 3.57143H46.4286V46.4286H39.2857V35.7143C39.2857 34.1518 38.5681 32.625 37.5 31.3616V46.4286H35.7143V3.57143ZM25 10.7143C22.8541 10.7143 20.9522 11.6716 19.6429 13.1696V22.5446C20.9522 24.0427 22.8541 25 25 25C27.1459 25 29.0478 24.0427 30.3571 22.5446V13.1696C29.0478 11.6716 27.1459 10.7143 25 10.7143Z" fill="black"/>
</svg>
