<svg width="50" height="50" viewBox="0 0 50 50" fill="none" xmlns="http://www.w3.org/2000/svg">
<path d="M25 1.5625C13.2812 1.5625 1.5625 7.42188 1.5625 16.2109C1.5625 22.0703 5.95781 25 5.95781 30.8594C5.95781 35.2547 4.49375 35.2547 4.49375 38.1844C4.49375 39.6484 9.18281 41.3094 13.2828 42.5797V48.4391H36.7219V42.5797C36.7219 42.5797 45.5656 39.85 45.5109 38.1844C45.4203 35.4547 44.0469 35.2547 44.0469 30.8594C44.0469 27.9297 48.5031 21.9312 48.4422 16.2109C48.4391 7.42188 36.7219 1.5625 25.0031 1.5625H25ZM16.2094 19.1391C19.4453 19.1391 22.0687 21.7625 22.0687 24.9984C22.0687 28.2344 19.4453 30.8578 16.2094 30.8578C12.9734 30.8578 10.35 28.2344 10.35 24.9984C10.35 21.7625 12.9734 19.1391 16.2094 19.1391ZM33.7891 19.1391C37.025 19.1391 39.6484 21.7625 39.6484 24.9984C39.6484 28.2344 37.025 30.8578 33.7891 30.8578C30.5531 30.8578 27.9297 28.2344 27.9297 24.9984C27.9297 21.7625 30.5531 19.1391 33.7891 19.1391ZM25 29.3938C26.4641 29.3938 29.3953 35.2531 29.3953 36.7188C29.3953 39.6484 29.3953 39.6484 27.9312 39.6484H22.0719C20.6078 39.6484 20.6078 39.6484 20.6078 36.7188C20.6063 35.2531 23.5344 29.3938 25 29.3938Z" fill="black"/>
</svg>
