<svg width="50" height="50" viewBox="0 0 50 50" fill="none" xmlns="http://www.w3.org/2000/svg">
<path d="M25 0C11.25 0 0 11.25 0 25C0 38.75 11.25 50 25 50C38.75 50 50 38.75 50 25C50 11.25 38.75 0 25 0ZM33.75 15C35.75 15 37.5 16.75 37.5 18.75C37.5 20.75 35.75 22.5 33.75 22.5C31.75 22.5 30 20.75 30 18.75C30 16.75 31.75 15 33.75 15ZM16.25 15C18.25 15 20 16.75 20 18.75C20 20.75 18.25 22.5 16.25 22.5C14.25 22.5 12.5 20.75 12.5 18.75C12.5 16.75 14.25 15 16.25 15ZM25 40C18.5 40 13 35.75 11 30H39C37 35.75 31.5 40 25 40Z" fill="black"/>
</svg>
