<svg width="50" height="50" viewBox="0 0 50 50" fill="none" xmlns="http://www.w3.org/2000/svg">
<path d="M46.0934 35.4034L40.6946 32.2838L45.2525 29.5694C45.9852 29.2164 46.212 28.2324 45.7953 27.509C45.3711 26.7682 44.4554 26.612 43.7604 27.017L37.6834 30.5765L28.0253 24.9566L37.6833 19.3946L43.7603 22.9483C43.9501 23.0871 44.1943 23.1682 44.4659 23.1682C44.9809 23.1682 45.4422 22.9251 45.7952 22.4621C46.2021 21.727 45.9851 20.7547 45.2524 20.4017L40.6945 17.6873L46.0933 14.5677C46.797 14.1626 47.039 13.2539 46.6361 12.5073C46.2513 11.7896 45.2992 11.5408 44.574 11.9633L39.148 15.1118L39.067 9.68288C39.0543 8.84366 38.4158 8.16646 37.5749 8.16646C36.7341 8.16646 36.0765 8.89571 36.0829 9.68288L36.1367 16.848L26.5331 22.41V11.124L32.583 7.67448C33.2893 7.27512 33.597 6.34329 33.1797 5.61411C32.756 4.87329 31.8862 4.65329 31.1449 5.07008L26.5331 7.67456V1.51635C26.5331 0.677129 25.8548 0 25.0138 0C24.1729 0 23.5218 0.677129 23.5218 1.51635V7.73232L18.7469 5.07C18.0031 4.65907 17.1564 4.89057 16.7391 5.61404C16.3155 6.35486 16.5788 7.26355 17.3087 7.67441L23.5218 11.176V22.3521L13.7007 16.6859L13.7551 9.68281C13.8367 8.89571 13.1311 8.16639 12.2902 8.16639H12.2358C11.4492 8.16639 10.7524 8.84359 10.7437 9.68281L10.6893 14.9496L5.39939 11.9111C4.66085 11.4828 3.7493 11.7374 3.36443 12.4493C2.96157 13.2017 3.16993 14.0872 3.90732 14.5155L9.25166 17.6061L4.58509 20.4016C3.85284 20.7547 3.6242 21.7386 4.06991 22.4621C4.35696 22.9309 4.77489 23.1682 5.34491 23.1682C5.64295 23.1682 5.89122 23.0929 6.13143 22.9483L12.2357 19.3425L22.0297 24.9566L12.2357 30.6285L6.13143 27.017C5.39868 26.5887 4.45414 26.7913 4.06984 27.509C3.66697 28.2556 3.88576 29.1527 4.58495 29.5694L9.25159 32.3359L3.90718 35.4555C3.17157 35.8838 2.93308 36.7867 3.36429 37.5217C3.6659 38.031 4.06991 38.2799 4.63943 38.2799C4.77489 38.2799 5.0463 38.1989 5.39939 38.06L10.6893 35.0215L10.7437 40.2883C10.7524 41.1275 11.4492 41.7757 12.2358 41.7757H12.2902C13.1311 41.7757 13.7614 41.0754 13.7551 40.2304L13.7007 33.233L23.5218 27.619V38.7372L17.3087 42.2387C16.5673 42.6554 16.3079 43.5641 16.7391 44.2991C17.0407 44.8142 17.4447 45.0631 18.0141 45.0631C18.2856 45.0631 18.5356 45.0168 18.7469 44.8952L23.5218 42.1865V48.5067C23.5218 49.3459 24.1729 49.9999 25.0138 49.9999C25.8548 49.9999 26.5331 49.3459 26.5331 48.5067V42.2907L31.1449 44.8952C31.356 45.0168 31.6061 45.0631 31.8504 45.0631C32.447 45.0631 32.8869 44.82 33.1797 44.2991C33.5918 43.5699 33.3256 42.6553 32.583 42.2387L26.5331 38.8471V27.5611L36.1367 33.123L36.0829 40.2304C36.0759 41.0754 36.734 41.7757 37.575 41.7757C38.4159 41.7757 39.0543 41.1275 39.067 40.2883L39.148 34.8305L44.574 38.0079C44.7835 38.1294 45.0624 38.17 45.3611 38.17C45.9307 38.17 46.3485 37.9327 46.6361 37.4639C47.0813 36.7404 46.7971 35.8086 46.0934 35.4034Z" fill="black"/>
</svg>
