<svg width="50" height="50" viewBox="0 0 50 50" fill="none" xmlns="http://www.w3.org/2000/svg">
<g clip-path="url(#clip0_42_727)">
<path d="M0.015625 4.689C3.19444 2.3935 13.865 0 25.0079 0C37.2822 0 47.94 2.131 50.0002 4.689C48.2263 7.6045 31.9499 9.375 25.0079 9.375C18.0659 9.375 1.51119 8.0625 0.015625 4.689Z" fill="black"/>
<path d="M50 6.24902C46.071 9.14302 35.9534 10.767 25.0078 10.938C12.6801 10.749 2.83441 9.94302 0.0154883 6.24902C-0.0106375 6.34652 -0.870123 15.3125 15.0112 20.3125C26.0155 23.7745 20.0097 29.6875 20.0097 29.6875C20.0097 29.6875 8.0761 40.314 18.343 43.7515C24.7742 45.8975 24.1653 48.8095 23.3416 50.0005C29.5798 42.64 11.8089 41.3335 31.673 32.813C41.8653 28.436 43.1439 25.89 40.0029 21.8755C35.8884 16.6005 49.1309 14.485 50 6.24902Z" fill="black"/>
</g>
<defs>
<clipPath id="clip0_42_727">
<rect width="50" height="50" fill="white"/>
</clipPath>
</defs>
</svg>
