<svg width="50" height="50" viewBox="0 0 50 50" fill="none" xmlns="http://www.w3.org/2000/svg">
<path d="M48.0984 27.5844L47.9969 26.6437V24.7484L47.9609 24.8625C47.9172 24.5359 47.8297 24.2187 47.7 23.9109L47.0047 17.5187L45.6234 21.6234C45.025 21.2437 44.3141 20.9109 43.4969 20.6359L41.8328 14.0094L40.4797 19.9609C39.3687 19.814 38.1422 19.7469 36.8031 19.7703L35.1656 14.2109L33.6547 19.9766C32.5531 20.0969 31.3922 20.2719 30.175 20.5047L28.6922 17.0062L27.1984 21.1672C26.7141 21.2891 26.2234 21.4187 25.725 21.5578V21.8406C25.5562 21.8031 25.3828 21.7828 25.2031 21.7828C25.0766 21.7828 24.9516 21.7922 24.8312 21.8109L24.925 21.2719C24.4922 21.0656 24.0641 20.8703 23.6406 20.6812L23.1531 16.1078L20.7672 19.4937C19.6047 19.0547 18.4891 18.6828 17.4219 18.3734L17.0672 12.6594L14.3578 17.6312C13.0234 17.375 11.7859 17.2297 10.6531 17.1844L10.3344 11.0891L7.56562 17.3359C6.71406 17.4672 5.95781 17.6734 5.30312 17.9469L4.64062 13.6672L2.86718 19.8484C2.6875 20.1297 2.54687 20.4281 2.44843 20.7422L2.43281 20.6234L2.11093 22.4906L1.85 23.4L1.96562 23.3328L1.24687 27.4906C0.615622 31.6469 6.7125 36.7656 21.3328 41.2625C21.8672 41.8156 22.6156 42.1609 23.4453 42.1609C24.3656 42.1609 25.1859 41.7375 25.725 41.0765V41.8859C40.9922 39.95 47.9109 35.9344 47.9969 31.7172V27.4969L48.0984 27.5844ZM23.2922 36.2891C22.9375 36.3078 22.6 36.3891 22.2891 36.5219L22.3047 36.4328C21.8547 36.2953 21.4141 36.1547 20.9812 36.014L20.6078 32.0891L18.15 35.025C16.9531 34.5766 15.8281 34.1172 14.775 33.6469L14.525 27.0391L11.6984 32.1422C10.6078 31.5562 9.61875 30.9609 8.72656 30.3641L8.33437 22.7328L5.90781 28.1891C4.92187 27.2984 4.14531 26.4156 3.56562 25.5625L3.84375 23.1141C7.25781 21.2844 14.1281 21.5578 23.4266 25.8406C23.4875 25.9062 23.5516 25.9672 23.6187 26.0265C20.7094 26.089 18.5266 27.0797 18.5266 28.4562C18.5266 29.864 20.8094 31.1969 23.8156 31.6547L23.2922 36.2922V36.2891ZM43.2859 31.6125L41.825 25.8234L40.1391 33.2766C39.1656 33.7094 38.1 34.1234 36.9375 34.5125L35.2953 29.3875L33.6828 35.4656C32.5703 35.75 31.3875 36.0125 30.1359 36.25L28.3516 32.6641L27.1359 36.7516C26.6734 36.8187 26.2031 36.8828 25.7234 36.9437V37.3703C25.4031 36.9765 24.9812 36.6672 24.5 36.4812L25.0297 31.7844C28.5422 32.0203 31.3781 30.9531 31.3781 29.3859C31.3781 28.0562 29.3422 26.7922 26.5812 26.2703C36.3875 23.6859 43.1469 24.589 46.1828 26.9609L46.0391 29.4219C45.3234 30.1656 44.4094 30.9016 43.2859 31.6125Z" fill="black"/>
</svg>
