<svg width="50" height="50" viewBox="0 0 50 50" fill="none" xmlns="http://www.w3.org/2000/svg">
<g clip-path="url(#clip0_42_796)">
<path d="M49.7301 3.39621C49.7948 3.30427 49.8017 3.18246 49.7488 3.08344C49.6944 2.98376 49.5885 2.92324 49.4761 2.92755L45.967 3.05622C45.8682 3.05965 45.7762 3.0154 45.7166 2.93685L43.6223 0.119902C43.554 0.0286257 43.4414 -0.01574 43.3308 0.00494926C43.2182 0.0253066 43.128 0.107178 43.0974 0.216267L42.0936 3.74306L38.6188 4.91549C38.5114 4.95211 38.4329 5.04582 38.4193 5.15756C38.4038 5.27019 38.4534 5.38083 38.5472 5.444L41.4614 7.40196C41.543 7.45661 41.5908 7.54767 41.5926 7.64481L41.6317 11.1563C41.6334 11.269 41.6982 11.3719 41.8004 11.4205C41.9026 11.4699 42.0235 11.4563 42.1122 11.3863L44.8763 9.21951C44.9531 9.1591 45.0555 9.1403 45.1473 9.17006L48.4995 10.2174C48.6069 10.2514 48.7244 10.2208 48.8029 10.139C48.8811 10.0571 48.9051 9.93799 48.8675 9.83233L47.6592 6.53478C47.6269 6.44262 47.6405 6.34039 47.6967 6.26117L49.7301 3.39621Z" fill="black"/>
<path d="M10.5402 43.1057C10.4532 43.0614 10.392 42.9771 10.38 42.8799L9.99827 40.0065C9.98466 39.8941 9.90611 39.8006 9.80056 39.7639C9.69313 39.728 9.57387 39.7552 9.49376 39.8355L7.44542 41.8883C7.37561 41.9573 7.2767 41.9888 7.18111 41.9709L4.32843 41.4458C4.21768 41.4254 4.10505 41.4698 4.03701 41.5601C3.96875 41.6512 3.95846 41.7723 4.00957 41.873L5.32693 44.4563C5.3713 44.5432 5.3713 44.6465 5.32361 44.7325L3.94319 47.283C3.89041 47.3818 3.89716 47.5034 3.96189 47.5957C4.02827 47.6875 4.13924 47.7353 4.25153 47.7174L7.11638 47.2617C7.21352 47.2463 7.31243 47.2794 7.37882 47.3501L9.37782 49.4515C9.45615 49.5332 9.57376 49.5639 9.68295 49.5306C9.79016 49.4967 9.87026 49.4046 9.88741 49.293L10.339 46.4282C10.3544 46.3319 10.4156 46.2485 10.5043 46.2067L13.1202 44.9541C13.2226 44.9056 13.289 44.8026 13.289 44.69C13.2907 44.5768 13.2277 44.4726 13.1272 44.4216L10.5402 43.1057Z" fill="black"/>
<path d="M0.916414 6.89999C0.86353 6.99978 0.870279 7.1216 0.935112 7.21354C1.00161 7.3057 1.11412 7.35338 1.22476 7.33535L3.12175 7.03375C3.21878 7.01837 3.31769 7.05178 3.38407 7.12237L4.70996 8.51375C4.78663 8.59551 4.90413 8.62627 5.0131 8.59308C5.12064 8.55889 5.20074 8.46695 5.21778 8.3552L5.51772 6.45766C5.5331 6.36129 5.59428 6.27787 5.68301 6.23616L7.41438 5.40705C7.51672 5.35837 7.5831 5.25536 7.5831 5.14284C7.58487 5.02966 7.52159 4.92555 7.42113 4.87444L5.70846 4.00272C5.6215 3.95847 5.56187 3.87394 5.54826 3.77691L5.296 1.87428C5.28074 1.76165 5.20229 1.66805 5.09663 1.63143C4.98932 1.59558 4.86994 1.6228 4.78995 1.70301L3.43353 3.06308C3.3635 3.13223 3.26481 3.16354 3.16933 3.14583L1.28108 2.7981C1.17033 2.77752 1.0577 2.82189 0.989657 2.91228C0.921504 3.00333 0.911325 3.12448 0.962329 3.22505L1.83493 4.93595C1.87918 5.02302 1.87918 5.12603 1.83161 5.21221L0.916414 6.89999Z" fill="black"/>
<path d="M43.1363 20.5984L33.0577 18.2364C31.6381 17.9041 30.7434 16.4989 31.0434 15.0718L32.5447 7.92507C32.5993 7.66264 32.4885 7.39357 32.2651 7.24609C32.0402 7.09861 31.749 7.10281 31.5308 7.25704L25.8081 11.2722C25.191 11.7051 24.4224 11.8583 23.6862 11.6957C22.9501 11.5329 22.3178 11.0685 21.9411 10.4159L16.4282 0.85367C16.28 0.597101 15.9782 0.47186 15.6921 0.550302C15.4057 0.627748 15.208 0.888521 15.2098 1.18503L15.3001 12.9322C15.312 14.4037 14.1344 15.6102 12.662 15.6358L5.39867 15.7627C5.13115 15.7679 4.8925 15.9359 4.79879 16.1863C4.70497 16.4377 4.77313 16.7206 4.9725 16.9004L10.1824 21.6049C10.7378 22.1068 11.0582 22.8182 11.0669 23.5663C11.0769 24.3154 10.7719 25.033 10.2282 25.5475L0.420533 34.8224C0.199036 35.0321 0.151241 35.367 0.307904 35.6295C0.463128 35.8918 0.780216 36.0122 1.06998 35.9176L13.3947 31.9213C14.1871 31.6648 15.0511 31.7898 15.7379 32.2595C16.4247 32.729 16.8541 33.4901 16.9035 34.3199L17.3928 42.8036C17.4098 43.0906 17.6125 43.3325 17.892 43.4C18.1716 43.4672 18.4612 43.3436 18.6079 43.0958L22.8563 35.8572L18.3794 26.0129C17.6312 24.3675 18.3572 22.4281 20.0018 21.68C20.4312 21.484 20.8947 21.3859 21.3567 21.3859C21.7453 21.3859 22.1337 21.4551 22.5053 21.5939C23.3182 21.898 23.9759 22.5132 24.3356 23.3031L30.2014 36.1978L42.2111 46.1743C42.4565 46.3787 42.816 46.3746 43.0563 46.1639C43.2984 45.9542 43.3511 45.5998 43.1825 45.328L33.022 28.9318C32.5959 28.2417 32.5023 27.3965 32.7715 26.6313C33.039 25.8653 33.639 25.262 34.4024 24.9894L43.2063 21.8486C43.4789 21.7513 43.6544 21.4863 43.6391 21.1966C43.6222 20.9077 43.4176 20.664 43.1363 20.5984Z" fill="black"/>
<path d="M22.7473 24.0255C22.5787 23.6541 22.2752 23.3703 21.8935 23.2281C21.7215 23.1634 21.5407 23.1309 21.3567 23.1309C21.1386 23.1309 20.9237 23.177 20.7244 23.2681C19.9593 23.6164 19.6203 24.5242 19.9678 25.2901L30.7995 49.1046C30.9683 49.476 31.2716 49.7589 31.6534 49.9022C31.8273 49.9668 32.0062 50.0001 32.1904 50.0001C32.4101 50.0001 32.6231 49.9541 32.8227 49.8631C33.1941 49.6944 33.477 49.3909 33.62 49.0091C33.7615 48.6275 33.7479 48.2126 33.5793 47.8409L22.7473 24.0255Z" fill="black"/>
</g>
<defs>
<clipPath id="clip0_42_796">
<rect width="50" height="50" fill="white"/>
</clipPath>
</defs>
</svg>
