<svg width="50" height="50" viewBox="0 0 50 50" fill="none" xmlns="http://www.w3.org/2000/svg">
<path d="M38.3517 18.6303L34.0876 16.9488C34.0876 16.9488 25.6189 29.9799 25.2923 33.632C24.9673 37.2842 43.3955 40.2313 47.0236 35.7441C48.4705 33.0342 42.9064 18.4743 42.9064 18.4743L38.3517 18.6303Z" fill="black"/>
<path d="M30.4077 38.4296L32.9999 47.5827L34.1608 47.7841L35.5155 39.3134L30.4077 38.4296Z" fill="black"/>
<path d="M35.1436 47.9564L36.3061 48.1578L41.6107 40.3694L36.4982 39.4856L35.1436 47.9564Z" fill="black"/>
<path d="M34.147 15.3664C34.147 15.3664 35.5845 16.6255 38.322 17.186C38.3329 17.1876 38.3376 17.1909 38.3438 17.1925C38.3657 17.1974 38.3829 17.2006 38.4079 17.2039C38.5032 17.225 38.597 17.238 38.6954 17.2542C38.7923 17.2705 38.8829 17.2884 38.9798 17.3013C39.0032 17.3046 39.022 17.3095 39.0438 17.3127C39.0501 17.3143 39.0579 17.3111 39.0642 17.3127C41.8313 17.7043 43.5829 16.9959 43.5829 16.9959C43.5829 16.9959 45.8438 21.5416 50.0001 17.1438C45.9548 17.0707 46.5985 15.7482 47.8735 14.8027C49.1423 13.862 53.4392 -1.28272 41.161 1.81056C30.5063 -5.25005 29.8595 10.5267 30.7657 11.8442C31.6751 13.1683 31.8735 14.6386 28.022 13.3438C30.5845 18.9 34.147 15.3664 34.147 15.3664ZM41.5954 8.84356C41.7048 8.15147 42.422 7.69982 43.197 7.83304C43.972 7.96788 44.5095 8.6356 44.4001 9.32769C44.2907 10.0198 43.5735 10.4698 42.7985 10.3366C42.0235 10.2034 41.486 9.53402 41.5954 8.84356ZM35.7532 7.83304C35.8642 7.14095 36.5798 6.68931 37.3548 6.82415C38.1282 6.95737 38.6673 7.62509 38.5579 8.3188C38.447 9.00927 37.7298 9.46091 36.9579 9.32607C36.1782 9.19123 35.6438 8.52351 35.7532 7.83304Z" fill="black"/>
<path d="M11.3732 18.6579L6.82322 18.3655C6.82322 18.3655 2.45603 33.4241 3.18885 37.0129C3.92166 40.6001 22.3592 37.7261 24.5404 32.321C25.1467 29.2862 15.6779 17.0999 15.6779 17.0999L11.3732 18.6579Z" fill="black"/>
<path d="M9.44238 40.0185L14.5314 47.9597L15.7002 47.7907L14.5752 39.2874L9.44238 40.0185Z" fill="black"/>
<path d="M16.686 47.6493L17.8548 47.4852L20.6938 38.4117L15.561 39.1444L16.686 47.6493Z" fill="black"/>
<path d="M6.42656 16.8399C6.42656 16.8399 8.15781 17.6003 10.9328 17.2867C10.9406 17.2867 10.9469 17.2883 10.9531 17.2883C10.975 17.2867 10.9953 17.2818 11.0172 17.277C11.1109 17.2656 11.2063 17.251 11.3031 17.2396C11.4 17.2282 11.4953 17.2136 11.5891 17.199C11.6109 17.1957 11.6313 17.1925 11.6531 17.1892C11.6594 17.1892 11.6656 17.1844 11.6719 17.1827C14.425 16.7035 15.8953 15.4866 15.8953 15.4866C15.8953 15.4866 19.3609 19.1242 22.0734 13.6427C18.1922 14.8238 18.4266 13.3616 19.3719 12.0619C20.3125 10.7736 20.0938 -5.01613 9.25156 1.73094C-2.94062 -1.72139 0.95 13.5436 2.18906 14.5216C3.4375 15.5045 4.04531 16.8464 0 16.8009C4.03438 21.3158 6.42656 16.8399 6.42656 16.8399ZM12.9187 6.85175C13.6969 6.7429 14.4016 7.21566 14.4938 7.90775C14.5844 8.60309 14.0281 9.25619 13.25 9.36667C12.4719 9.47714 11.7672 9.006 11.6766 8.31229C11.5844 7.61695 12.1406 6.96547 12.9187 6.85175ZM7.05156 7.69168C7.82813 7.5812 8.53281 8.05397 8.625 8.74768C8.71719 9.44465 8.16094 10.0961 7.38437 10.205C6.60469 10.3187 5.9 9.84593 5.80781 9.15059C5.71563 8.45688 6.27187 7.80215 7.05156 7.69168Z" fill="black"/>
<path d="M28.5704 24.604L33.5376 16.9472L25.0923 23.4002L16.3892 16.8058L21.5392 24.3327L25.0188 26.0451L28.5704 24.604Z" fill="black"/>
</svg>
